<svg version="1.1" id="Layer_1" xmlns="http://www.w3.org/2000/svg" xmlns:xlink="http://www.w3.org/1999/xlink" x="0px" y="0px"
	 width="100%" viewBox="0 0 1024 1024" enable-background="new 0 0 1024 1024" xml:space="preserve">
<path fill="#000000" opacity="1.000000" stroke="none" 
	d="
M679.000000,1025.000000 
	C452.666656,1025.000000 226.833328,1025.000000 1.000000,1025.000000 
	C1.000000,683.666687 1.000000,342.333344 1.000000,1.000000 
	C342.333344,1.000000 683.666687,1.000000 1025.000000,1.000000 
	C1025.000000,342.333344 1025.000000,683.666687 1025.000000,1025.000000 
	C909.833313,1025.000000 794.666687,1025.000000 679.000000,1025.000000 
M356.561707,626.470764 
	C355.646637,628.642151 354.731598,630.813477 353.595306,633.474731 
	C353.368591,633.961853 353.141876,634.448975 352.400665,635.306519 
	C351.641693,636.561035 350.882721,637.815552 349.804565,639.701965 
	C346.201477,647.800842 342.598419,655.899658 338.466339,664.422668 
	C337.544464,665.590088 336.406250,666.645386 335.733856,667.942139 
	C328.146484,682.574951 320.626434,697.242676 313.096741,711.905334 
	C304.807037,728.047852 296.480377,744.171631 288.254456,760.346619 
	C280.402771,775.785828 272.567169,791.234741 264.925140,806.778076 
	C262.580109,811.547668 264.568054,814.857117 269.826416,815.672791 
	C271.949921,816.002197 274.144897,815.899719 276.308350,815.937500 
	C301.114594,816.370300 325.920441,816.870178 350.728668,817.066895 
	C352.678741,817.082397 355.448456,815.443054 356.452667,813.751038 
	C359.331726,808.899902 361.567169,803.657593 363.933685,798.512878 
	C375.693207,772.948608 387.455566,747.385376 399.133575,721.783875 
	C407.753021,702.887634 416.417969,684.008850 424.722748,664.973999 
	C429.155212,654.814697 429.722504,653.938477 440.931610,654.025024 
	C472.908600,654.271973 504.884888,654.618530 536.861084,654.958435 
	C542.871643,655.022278 543.968933,655.825256 544.068298,661.894775 
	C544.264465,673.881409 544.039307,685.874512 544.035034,697.864929 
	C544.031982,706.431213 544.630310,706.963440 553.046326,707.059387 
	C569.696167,707.249146 586.356079,707.202881 602.990723,707.821472 
	C612.443176,708.173035 613.245483,709.520386 613.768494,719.743103 
	C611.361267,721.198669 609.084229,722.955261 606.526001,724.061584 
	C587.692444,732.206238 568.391907,738.874634 547.529724,741.497070 
	C542.594299,739.658081 537.778198,736.770020 532.699341,736.192627 
	C521.177429,734.882812 509.502380,734.988586 497.934326,733.997192 
	C486.370483,733.006042 474.730713,732.048706 463.366577,729.833313 
	C453.162872,727.844116 443.284332,724.180115 433.270813,721.226257 
	C429.587433,720.139771 426.008453,719.252075 423.367615,724.120850 
	C422.744049,724.725220 422.120483,725.329590 421.027954,726.354553 
	C420.241150,727.424072 419.249329,728.397827 418.698456,729.577515 
	C410.884216,746.311523 403.107880,763.063354 395.377197,779.836182 
	C393.562408,783.773621 395.401550,785.988342 399.059418,787.579712 
	C440.544861,805.627258 483.576050,815.420288 529.115417,813.145569 
	C568.601318,811.173096 606.026733,801.530151 641.447632,784.187317 
	C672.697449,768.886597 700.130615,748.481995 723.855103,722.844971 
	C744.509888,700.524902 760.783447,675.329773 775.371277,648.895142 
	C776.797791,646.310181 776.901733,642.995422 777.646790,639.406128 
	C777.461365,638.828308 777.275879,638.250488 776.555725,637.279175 
	C767.530151,632.822144 758.219421,629.826172 747.925049,630.023560 
	C732.827148,630.312927 717.717957,629.988831 702.617920,630.215027 
	C698.366821,630.278748 694.130859,631.353027 689.365662,632.351074 
	C682.468811,641.840027 675.679260,651.409607 668.631042,660.784790 
	C664.969055,665.655884 660.850159,670.183533 656.333435,675.174866 
	C643.902466,684.488098 631.471558,693.801331 618.445007,703.034119 
	C618.049500,702.980835 617.654053,702.927551 617.213440,701.953674 
	C617.080750,688.671570 616.948059,675.389526 616.925232,661.192932 
	C616.950073,658.462646 616.974854,655.732361 617.228455,652.207764 
	C617.156067,645.077515 617.098511,637.947021 617.008545,630.817017 
	C616.682983,605.007446 616.216431,579.198975 616.040039,553.388428 
	C615.618713,491.759338 615.384766,430.128967 614.967407,368.499847 
	C614.782471,341.189209 614.374146,313.879669 613.938721,286.571716 
	C613.903503,284.362030 612.870422,282.168243 611.805725,279.323578 
	C609.934326,278.857971 608.065308,277.998322 606.191101,277.986694 
	C583.646301,277.847168 561.100708,277.804688 538.555481,277.837402 
	C536.636780,277.840210 534.719116,278.562561 532.267578,279.313354 
	C530.247864,282.126129 527.875427,284.753448 526.279480,287.788971 
	C522.561340,294.860901 519.294434,302.168152 515.708435,309.311676 
	C496.056946,348.457855 476.375854,387.589142 456.682861,426.714386 
	C435.041534,469.710480 413.320282,512.666443 391.775909,555.710999 
	C388.149536,562.956238 385.242310,570.561462 382.000000,578.000000 
	C382.000000,578.000000 382.001678,578.002930 381.454254,578.384399 
	C376.625366,587.916016 371.796448,597.447632 366.985565,606.980469 
	C366.985565,606.980469 366.967957,606.974976 366.420837,607.357178 
	C363.300446,613.583130 360.180054,619.809143 357.021027,626.009583 
	C357.021027,626.009583 357.047302,626.045166 356.561707,626.470764 
M508.746338,256.927612 
	C512.891235,256.668854 517.043091,256.107117 521.179749,256.203339 
	C540.021362,256.641663 558.711975,258.792786 576.855835,263.865356 
	C590.424377,267.658813 603.636597,272.727142 617.476562,277.687714 
	C625.355530,282.316803 633.333374,286.786713 641.091675,291.609924 
	C654.885742,300.185455 666.924011,310.993500 677.708313,322.985168 
	C685.846252,332.034210 694.844421,340.745239 698.129883,353.292114 
	C698.650635,355.280731 701.136902,357.709869 703.124817,358.172791 
	C708.261169,359.368927 713.650208,360.242096 718.896851,360.058350 
	C734.305786,359.518616 749.689087,358.287537 765.093323,357.555969 
	C774.179382,357.124451 778.730164,349.984009 774.485840,342.191833 
	C773.139404,339.719818 771.442810,337.438507 769.647705,334.414978 
	C766.933838,329.471680 764.409241,324.412689 761.471863,319.605927 
	C751.038269,302.532104 738.857300,286.678284 724.516479,272.822632 
	C712.753235,261.457428 699.593262,251.537918 686.576538,240.653381 
	C686.069458,240.381241 685.562439,240.109100 684.655029,239.358734 
	C683.443726,238.562454 682.232483,237.766174 680.504089,236.547653 
	C679.655823,236.021133 678.793579,235.515778 677.961365,234.965042 
	C631.877136,204.468750 580.880371,189.603455 525.951782,188.039505 
	C495.383911,187.169174 465.544708,192.580063 436.719727,202.525970 
	C422.789001,207.332687 409.525085,214.071808 395.271759,220.135086 
	C387.318542,224.576584 379.220673,228.782471 371.464691,233.545166 
	C366.563599,236.554779 362.173004,240.395706 356.894470,244.012848 
	C354.337341,245.554047 351.573181,246.834625 349.254883,248.676422 
	C324.168610,268.606445 302.314331,291.583374 284.525604,318.286743 
	C260.683685,354.076904 244.469345,393.051514 235.868668,435.220947 
	C231.018509,459.001465 228.888260,483.080383 229.300400,507.234528 
	C229.778503,535.256104 233.272278,563.013855 240.366806,590.261047 
	C250.629089,629.674133 267.908844,665.924194 289.271606,700.372925 
	C291.871643,704.565613 294.024261,704.492310 296.618317,700.184326 
	C300.310974,694.051880 303.681793,687.726318 307.230377,681.506287 
	C314.077393,669.504700 320.948151,657.516541 327.819763,645.528992 
	C329.324554,642.903809 330.942352,641.040405 334.605499,642.333984 
	C339.435425,644.039490 343.347900,640.069946 342.102448,634.958008 
	C341.714752,633.366882 340.903442,631.850952 340.122559,630.387878 
	C329.544342,610.567505 322.228729,589.556702 316.898193,567.776489 
	C309.419769,537.220459 306.998932,506.308868 310.408447,475.040710 
	C311.213837,467.654541 309.220093,461.562714 304.758087,456.090363 
	C302.285339,453.057648 302.565552,449.920105 304.684814,447.511108 
	C306.925018,444.964722 307.305420,442.857330 306.065460,439.889099 
	C305.610443,438.799866 305.884033,437.236938 306.235474,436.007324 
	C308.705414,427.365845 310.860565,418.603058 313.901306,410.161774 
	C324.759399,380.019196 341.372192,353.185822 362.487183,329.242981 
	C376.774628,313.042023 393.470520,299.534363 412.018036,288.324554 
	C441.622772,270.431915 473.515808,259.696411 508.746338,256.927612 
z"/>
<path fill="#2C2C2C" opacity="1.000000" stroke="none" 
	d="
M685.055359,239.836945 
	C685.562439,240.109100 686.069458,240.381241 686.738159,241.097473 
	C687.606506,242.926361 688.003418,244.645721 689.074280,245.637100 
	C693.334900,249.581390 697.938171,253.157135 702.174683,257.125397 
	C717.556030,271.532806 733.042114,285.901337 744.881104,303.523224 
	C752.905945,315.467987 760.355408,327.799316 768.101318,340.225128 
	C768.161072,340.671509 768.181702,340.850464 767.917419,341.111389 
	C767.085266,341.405609 766.538086,341.617920 765.522888,341.821381 
	C746.574219,341.842163 728.091797,341.741486 709.613892,341.982758 
	C704.240784,342.052917 700.613831,340.275085 697.568604,335.762909 
	C676.790344,304.975403 648.598572,282.702179 615.036011,267.778564 
	C581.936646,253.060913 547.053406,245.934769 510.479523,248.737976 
	C481.934082,250.925827 454.615509,257.584961 428.898438,270.155792 
	C418.310608,275.331238 408.224762,281.533661 398.006470,286.895142 
	C401.709320,282.844666 405.095215,278.907532 409.005920,275.588867 
	C411.365204,273.586823 415.106598,263.513031 413.495911,260.919678 
	C413.010254,260.137756 411.924072,259.031769 411.301086,259.141571 
	C405.967224,260.081726 402.566589,255.924179 398.185669,254.431961 
	C395.543915,253.532166 394.711792,252.006210 395.051392,249.145645 
	C395.983795,241.292297 389.627289,235.953568 382.152985,238.291595 
	C371.592773,241.594910 361.836517,246.260971 353.978363,254.479706 
	C352.397888,256.132690 349.097870,256.141571 346.754913,256.658295 
	C347.266296,255.920502 347.613495,255.432922 348.298737,254.849304 
	C351.096436,252.506973 353.556091,250.260666 356.259369,247.886307 
	C356.983490,247.489487 357.463959,247.220718 358.257385,246.807602 
	C368.386230,240.200211 378.277771,233.847641 387.972260,227.207413 
	C390.914429,225.192169 393.312164,222.382065 395.959259,219.936005 
	C409.525085,214.071808 422.789001,207.332687 436.719727,202.525970 
	C465.544708,192.580063 495.383911,187.169174 525.951782,188.039505 
	C580.880371,189.603455 631.877136,204.468750 677.961365,234.965042 
	C678.793579,235.515778 679.655823,236.021133 680.845337,237.055344 
	C682.476196,238.320999 683.765808,239.078979 685.055359,239.836945 
z"/>
<path fill="#101010" opacity="1.000000" stroke="none" 
	d="
M357.944427,246.951965 
	C357.463959,247.220718 356.983490,247.489487 355.920319,247.980591 
	C352.878632,250.450409 350.419647,252.697876 347.960693,254.945343 
	C347.613495,255.432922 347.266296,255.920502 346.452728,256.744690 
	C343.418182,258.867584 340.488159,260.301453 338.345154,262.501831 
	C329.575317,271.506348 320.933014,280.641846 312.452057,289.919525 
	C297.035339,306.784515 284.639648,325.795258 273.460602,345.639618 
	C271.918549,348.376984 270.520447,351.195435 268.861084,354.265991 
	C268.055847,355.546539 267.307983,356.478790 266.856049,357.537384 
	C262.631409,367.432983 258.291504,377.284393 254.320831,387.281982 
	C251.085434,395.428223 247.196442,403.543182 245.562653,412.049500 
	C242.220703,429.449432 236.847031,446.573334 237.348450,464.627289 
	C237.487854,469.646179 239.415726,472.654785 243.794464,474.473572 
	C248.474976,468.508789 250.397858,467.990112 257.058624,470.579956 
	C258.126862,470.995300 259.301453,471.420197 260.412964,471.386261 
	C263.339966,471.296783 264.938965,472.371063 265.757233,475.364319 
	C266.643646,478.606934 269.114044,479.555237 272.431122,478.598114 
	C277.614807,477.102417 279.963715,479.833801 278.546295,485.724457 
	C275.605469,485.795776 274.573975,479.407196 270.238342,483.284149 
	C270.909454,484.480499 272.122742,485.627716 272.073944,486.718445 
	C271.711853,494.810455 277.289948,494.085022 282.509979,494.005341 
	C284.339172,493.977417 286.169159,494.001099 288.004303,494.335510 
	C288.015778,495.115540 288.021759,495.561279 287.739502,496.179932 
	C283.565765,499.959412 285.473572,502.622925 288.865387,505.411499 
	C288.876495,506.511688 288.888367,507.245087 288.679688,508.238983 
	C288.608978,511.006622 288.758789,513.513794 288.906982,516.478882 
	C289.909729,528.014587 290.381104,539.173096 292.042053,550.151611 
	C294.605011,567.092651 298.069946,583.864929 304.820190,599.795044 
	C309.288116,610.339111 312.914368,621.251465 317.655182,631.663025 
	C319.835663,636.451660 321.080963,640.501892 318.091125,645.179810 
	C317.392761,646.272461 317.297485,647.750549 316.799011,649.489868 
	C320.139526,645.075317 322.764038,640.886108 326.120209,637.401733 
	C328.764313,634.656616 329.029175,632.640137 327.454834,629.145325 
	C322.413086,617.953674 317.721161,606.594727 313.230164,595.168335 
	C310.503174,588.230103 308.396179,581.048218 306.005035,573.543518 
	C304.307434,563.473511 302.518402,553.851440 300.955475,544.192810 
	C299.790924,536.996277 300.236176,529.232056 297.632477,522.641968 
	C292.753479,510.293152 293.767426,497.852539 294.626984,485.359772 
	C295.341339,474.977325 297.335083,464.688873 298.349335,454.318390 
	C298.778320,449.932220 298.149567,445.442596 298.006897,440.668640 
	C298.017792,439.895477 298.023376,439.453644 298.228943,438.815552 
	C298.619843,437.412811 298.810760,436.206421 299.061340,434.624634 
	C299.748657,431.833710 300.376312,429.418182 301.157196,426.875854 
	C301.537018,426.165466 301.763672,425.581909 302.001465,424.626495 
	C302.027893,423.510895 302.043182,422.767090 302.327026,421.826630 
	C303.728546,418.419678 304.861511,415.209412 306.031677,411.635803 
	C306.392303,409.857239 306.715759,408.442017 307.359680,406.897461 
	C312.524750,403.009277 312.674255,397.252747 314.065186,391.641296 
	C315.100922,389.194000 316.042145,387.089539 317.240021,384.850220 
	C317.996643,383.476624 318.496582,382.237946 319.078003,380.646851 
	C320.330719,377.917450 321.333191,375.437836 322.704102,373.182159 
	C327.189850,365.801697 331.820343,358.509308 336.375793,351.170990 
	C346.717346,334.511932 359.376495,319.811920 374.154175,306.969818 
	C381.917206,300.223602 389.982056,293.824707 397.910614,287.268982 
	C408.224762,281.533661 418.310608,275.331238 428.898438,270.155792 
	C454.615509,257.584961 481.934082,250.925827 510.479523,248.737976 
	C547.053406,245.934769 581.936646,253.060913 615.036011,267.778564 
	C648.598572,282.702179 676.790344,304.975403 697.568604,335.762909 
	C700.613831,340.275085 704.240784,342.052917 709.613892,341.982758 
	C728.091797,341.741486 746.574219,341.842163 765.733643,341.930969 
	C767.009033,341.709442 767.605713,341.369446 768.202393,341.029419 
	C768.181702,340.850464 768.161072,340.671509 768.162231,339.899353 
	C768.758179,337.894073 769.332275,336.482025 769.906433,335.069946 
	C771.442810,337.438507 773.139404,339.719818 774.485840,342.191833 
	C778.730164,349.984009 774.179382,357.124451 765.093323,357.555969 
	C749.689087,358.287537 734.305786,359.518616 718.896851,360.058350 
	C713.650208,360.242096 708.261169,359.368927 703.124817,358.172791 
	C701.136902,357.709869 698.650635,355.280731 698.129883,353.292114 
	C694.844421,340.745239 685.846252,332.034210 677.708313,322.985168 
	C666.924011,310.993500 654.885742,300.185455 641.091675,291.609924 
	C633.333374,286.786713 625.355530,282.316803 617.083496,277.137268 
	C614.280640,274.898224 612.084290,272.688477 609.428467,271.600952 
	C580.124634,259.601746 549.681519,253.320969 517.934326,254.276794 
	C514.614685,254.376709 511.341858,256.031555 508.047302,256.964966 
	C473.515808,259.696411 441.622772,270.431915 412.018036,288.324554 
	C393.470520,299.534363 376.774628,313.042023 362.487183,329.242981 
	C341.372192,353.185822 324.759399,380.019196 313.901306,410.161774 
	C310.860565,418.603058 308.705414,427.365845 306.235474,436.007324 
	C305.884033,437.236938 305.610443,438.799866 306.065460,439.889099 
	C307.305420,442.857330 306.925018,444.964722 304.684814,447.511108 
	C302.565552,449.920105 302.285339,453.057648 304.758087,456.090363 
	C309.220093,461.562714 311.213837,467.654541 310.408447,475.040710 
	C306.998932,506.308868 309.419769,537.220459 316.898193,567.776489 
	C322.228729,589.556702 329.544342,610.567505 340.122559,630.387878 
	C340.903442,631.850952 341.714752,633.366882 342.102448,634.958008 
	C343.347900,640.069946 339.435425,644.039490 334.605499,642.333984 
	C330.942352,641.040405 329.324554,642.903809 327.819763,645.528992 
	C320.948151,657.516541 314.077393,669.504700 307.230377,681.506287 
	C303.681793,687.726318 300.310974,694.051880 296.618317,700.184326 
	C294.024261,704.492310 291.871643,704.565613 289.271606,700.372925 
	C267.908844,665.924194 250.629089,629.674133 240.366806,590.261047 
	C233.272278,563.013855 229.778503,535.256104 229.300400,507.234528 
	C228.888260,483.080383 231.018509,459.001465 235.868668,435.220947 
	C244.469345,393.051514 260.683685,354.076904 284.525604,318.286743 
	C302.314331,291.583374 324.168610,268.606445 349.254883,248.676422 
	C351.573181,246.834625 354.337341,245.554047 357.293976,244.319901 
	C357.777130,245.401947 357.860779,246.176956 357.944427,246.951965 
M237.227173,489.540192 
	C237.635864,494.516510 240.966507,493.562500 244.851852,493.369659 
	C243.089157,490.465942 241.707764,488.190369 239.829193,485.095795 
	C238.747635,486.715759 238.027573,487.794250 237.227173,489.540192 
M240.268112,482.311096 
	C240.619431,481.519073 240.970749,480.727051 241.322098,479.935059 
	C240.442596,479.933624 239.563080,479.932159 238.683578,479.930725 
	C239.037445,480.722473 239.391312,481.514191 240.268112,482.311096 
z"/>
<path fill="#101010" opacity="1.000000" stroke="none" 
	d="
M612.301025,279.967041 
	C612.870422,282.168243 613.903503,284.362030 613.938721,286.571716 
	C614.374146,313.879669 614.782471,341.189209 614.967407,368.499847 
	C615.384766,430.128967 615.618713,491.759338 616.040039,553.388428 
	C616.216431,579.198975 616.682983,605.007446 617.008545,630.817017 
	C617.098511,637.947021 617.156067,645.077515 616.872253,652.878296 
	C616.129578,656.463257 615.743164,659.377625 615.352661,662.742188 
	C615.252014,677.462097 615.155457,691.731873 614.957764,706.181396 
	C615.584595,710.271118 616.312561,714.181091 616.777344,718.242065 
	C615.766907,718.685669 615.019653,718.978394 614.272400,719.271118 
	C613.245483,709.520386 612.443176,708.173035 602.990723,707.821472 
	C586.356079,707.202881 569.696167,707.249146 553.046326,707.059387 
	C544.630310,706.963440 544.031982,706.431213 544.035034,697.864929 
	C544.039307,685.874512 544.264465,673.881409 544.068298,661.894775 
	C543.968933,655.825256 542.871643,655.022278 536.861084,654.958435 
	C504.884888,654.618530 472.908600,654.271973 440.931610,654.025024 
	C429.722504,653.938477 429.155212,654.814697 424.722748,664.973999 
	C416.417969,684.008850 407.753021,702.887634 399.133575,721.783875 
	C387.455566,747.385376 375.693207,772.948608 363.933685,798.512878 
	C361.567169,803.657593 359.331726,808.899902 356.452667,813.751038 
	C355.448456,815.443054 352.678741,817.082397 350.728668,817.066895 
	C325.920441,816.870178 301.114594,816.370300 276.308350,815.937500 
	C274.144897,815.899719 271.949921,816.002197 269.826416,815.672791 
	C264.568054,814.857117 262.580109,811.547668 264.925140,806.778076 
	C272.567169,791.234741 280.402771,775.785828 288.254456,760.346619 
	C296.480377,744.171631 304.807037,728.047852 313.096741,711.905334 
	C320.626434,697.242676 328.146484,682.574951 335.733856,667.942139 
	C336.406250,666.645386 337.544464,665.590088 338.985901,664.198547 
	C341.198517,662.461609 343.338226,661.224121 344.480164,659.371643 
	C346.201111,656.579834 347.082825,653.286865 348.569122,650.331543 
	C355.672180,636.208008 362.858795,622.126465 370.224976,608.241821 
	C370.307709,610.111877 370.427917,611.836792 370.000977,613.413635 
	C369.225677,616.276794 367.885284,619.001892 367.284851,621.889404 
	C367.063110,622.955872 368.081085,625.240967 368.846008,625.392517 
	C373.155823,626.245789 374.735565,629.600220 377.137360,632.612061 
	C378.886810,634.805847 382.365997,636.009583 385.294647,636.657654 
	C386.288910,636.877686 387.735291,633.656189 389.381470,632.728638 
	C390.972382,631.832214 393.517548,630.986145 394.888123,631.658264 
	C398.607880,633.482544 400.616516,633.000549 402.082367,628.996338 
	C402.534637,627.760864 404.352997,626.510620 405.697784,626.315857 
	C406.466095,626.204529 408.116699,628.086548 408.365723,629.280518 
	C409.028656,632.458618 410.888458,632.131775 413.224976,631.711487 
	C417.636108,630.918091 422.063293,630.073181 426.520844,629.726440 
	C429.703735,629.478821 432.947144,630.009644 436.860718,630.232849 
	C437.126801,633.661011 442.951050,635.772522 441.797516,641.657959 
	C441.338684,643.998840 444.466553,645.336182 446.935791,643.194092 
	C449.229248,641.204529 451.247437,641.686890 453.045563,643.643250 
	C456.394653,647.286987 460.607941,648.036133 465.300476,648.020264 
	C488.086487,647.943298 510.872955,647.983887 533.659241,648.008667 
	C536.154236,648.011353 538.651428,648.139099 541.143616,648.279297 
	C545.805908,648.541687 548.515015,651.089722 549.238098,655.626587 
	C549.655457,658.244812 549.941650,660.912292 549.963623,663.560181 
	C550.049316,673.886536 549.957825,684.214233 550.028259,694.540833 
	C550.072021,700.946960 550.987122,701.930298 557.187988,701.958496 
	C572.344971,702.027405 587.502808,702.032288 602.659790,701.954102 
	C609.468811,701.919006 610.846619,700.477112 610.978577,693.711731 
	C611.338196,675.270325 611.782227,656.829041 611.928833,638.385681 
	C611.985474,631.259888 611.330688,624.128479 610.998779,616.549561 
	C611.001770,613.398376 611.005981,610.697205 611.139465,607.628174 
	C611.175842,603.502136 611.083008,599.744141 610.991516,595.518311 
	C611.000671,562.933228 611.041443,530.815857 611.006470,498.698639 
	C610.975708,470.422729 610.860168,442.146851 610.707153,413.491241 
	C610.443848,410.738159 610.255493,408.364777 610.198608,405.603333 
	C610.236694,394.811768 610.143250,384.408295 610.050903,373.535889 
	C609.814270,344.554321 609.500671,316.041809 609.470337,287.528931 
	C609.467651,285.009308 611.313721,282.487732 612.301025,279.967041 
z"/>
<path fill="#2C2C2C" opacity="1.000000" stroke="none" 
	d="
M612.053345,279.645325 
	C611.313721,282.487732 609.467651,285.009308 609.470337,287.528931 
	C609.500671,316.041809 609.814270,344.554321 609.904297,373.903992 
	C607.159851,385.184631 608.708618,395.587067 610.067078,405.991425 
	C610.255493,408.364777 610.443848,410.738159 610.452881,413.733093 
	C609.524841,416.487000 608.298706,418.581299 608.125305,420.759430 
	C607.744629,425.537598 608.081238,430.371857 607.728210,435.153900 
	C607.610657,436.744720 606.475342,438.409271 605.392456,439.691345 
	C605.056885,440.088562 602.675842,439.660675 602.390015,439.059570 
	C599.017212,431.966919 593.895569,435.109772 589.321411,436.917816 
	C585.109924,438.582458 583.250977,438.032440 583.880920,433.124359 
	C583.992737,432.252899 583.528931,431.177063 583.033875,430.380127 
	C580.512268,426.320770 577.922485,422.302704 575.298645,418.308258 
	C573.211609,415.131042 570.330994,414.321136 567.176331,416.438141 
	C562.202026,419.776367 557.773621,418.277008 553.329651,415.457092 
	C551.936340,414.572968 550.489197,413.773682 549.063843,412.474182 
	C549.033813,407.537506 549.074158,403.060425 548.958679,398.587402 
	C548.862122,394.846344 547.647827,391.428802 543.637756,390.565002 
	C539.401978,389.652618 537.354004,392.883392 535.883179,396.142456 
	C533.091370,402.328583 530.513550,408.611267 527.603394,414.954926 
	C525.122009,416.082458 524.338623,415.328003 524.493958,412.936890 
	C524.920410,406.370331 522.295105,402.858765 515.895752,401.217377 
	C511.404175,400.065277 509.082336,397.090393 510.847321,392.753235 
	C512.346130,389.070129 510.407745,388.276520 508.201477,387.207367 
	C501.009003,383.721893 493.769897,380.073242 485.448120,387.563293 
	C486.114868,384.373413 486.475464,382.648132 486.891388,380.540222 
	C487.825897,377.656891 488.449493,375.028778 489.623138,372.674927 
	C503.788727,344.264465 518.106812,315.929626 532.130920,287.449890 
	C533.297302,285.081177 532.621033,281.805145 532.800964,278.950653 
	C534.719116,278.562561 536.636780,277.840210 538.555481,277.837402 
	C561.100708,277.804688 583.646301,277.847168 606.191101,277.986694 
	C608.065308,277.998322 609.934326,278.857971 612.053345,279.645325 
M591.956848,431.023163 
	C591.855713,430.510925 591.754517,429.998657 591.653381,429.486389 
	C591.327209,429.748779 591.001099,430.011139 590.674927,430.273529 
	C591.015381,430.601166 591.355835,430.928772 591.956848,431.023163 
M562.062683,413.206573 
	C562.197205,413.396484 562.331726,413.586365 562.466248,413.776306 
	C562.568542,413.680084 562.670837,413.583893 562.773132,413.487671 
	C562.587646,413.346527 562.402161,413.205414 562.062683,413.206573 
z"/>
<path fill="#101010" opacity="1.000000" stroke="none" 
	d="
M777.619629,640.019409 
	C776.901733,642.995422 776.797791,646.310181 775.371277,648.895142 
	C760.783447,675.329773 744.509888,700.524902 723.855103,722.844971 
	C700.130615,748.481995 672.697449,768.886597 641.447632,784.187317 
	C606.026733,801.530151 568.601318,811.173096 529.115417,813.145569 
	C483.576050,815.420288 440.544861,805.627258 399.059418,787.579712 
	C395.401550,785.988342 393.562408,783.773621 395.377197,779.836182 
	C403.107880,763.063354 410.884216,746.311523 418.698456,729.577515 
	C419.249329,728.397827 420.241150,727.424072 421.364868,726.549316 
	C421.860260,731.143738 424.211792,733.638062 428.330719,734.989868 
	C431.636322,736.074768 434.783783,737.641418 438.084229,739.338867 
	C439.089142,741.237305 439.826538,742.945068 440.968964,744.315186 
	C444.014740,747.967773 447.048676,751.670105 450.478699,754.942566 
	C451.818024,756.220276 454.166809,756.541687 456.120087,757.053406 
	C460.506012,758.202454 464.965485,759.078003 469.332275,760.290710 
	C473.434235,761.429932 477.522644,764.102173 481.497742,763.887878 
	C488.557098,763.507202 495.378632,758.559875 502.700592,763.099487 
	C503.039886,763.309753 503.678070,763.076904 504.168671,762.998169 
	C510.003754,762.062561 515.823059,761.011292 521.678040,760.224915 
	C524.117615,759.897217 526.638306,760.229736 529.111328,760.081726 
	C532.679382,759.868225 536.236511,759.477051 539.800354,759.187500 
	C542.064026,759.003601 544.828308,757.970032 546.494629,758.893433 
	C550.047302,760.862366 553.436401,763.497009 556.135986,766.531860 
	C558.917725,769.658936 561.726501,769.940308 565.480164,769.268311 
	C576.059998,767.374207 586.509399,767.126770 596.083313,773.293335 
	C599.604004,775.561096 602.264099,774.549011 604.501038,771.149902 
	C605.738892,769.268799 607.191833,766.949585 609.070923,766.266418 
	C610.404907,765.781372 612.613281,767.701111 614.792969,768.715759 
	C616.708984,763.820923 612.507935,757.203369 617.737549,753.130188 
	C623.013245,755.539734 620.236755,768.763611 631.200073,761.476196 
	C635.924438,765.914368 639.995789,761.972046 644.731384,760.788879 
	C642.630981,759.000854 641.062195,757.665344 639.148560,756.036316 
	C645.433716,753.447021 652.753357,757.536682 656.573486,749.797119 
	C658.998291,751.460693 661.303589,752.769714 663.287598,754.456665 
	C668.386414,758.791687 670.823364,759.545349 675.854797,755.554260 
	C689.271606,744.911377 703.288696,734.771118 715.320801,722.691528 
	C738.005493,699.917480 756.140564,673.555298 771.264404,644.812866 
	C773.558716,643.086731 775.589172,641.553101 777.619629,640.019409 
M652.660095,760.755005 
	C653.523499,760.262085 654.386841,759.769226 655.250244,759.276367 
	C654.875061,758.863770 654.499939,758.451111 654.124817,758.038452 
	C653.551453,758.852844 652.978149,759.667175 652.660095,760.755005 
M648.647400,763.517578 
	C648.403503,764.011230 648.159607,764.504822 647.915710,764.998474 
	C648.316284,765.103394 648.716919,765.208252 649.117493,765.313110 
	C649.072266,764.747681 649.027100,764.182251 648.647400,763.517578 
M643.342407,771.949951 
	C643.462769,771.956482 643.583130,771.962952 643.703491,771.969543 
	C643.608887,771.934570 643.514343,771.899597 643.342407,771.949951 
M566.599121,775.863464 
	C566.557068,775.972595 566.514954,776.081726 566.472839,776.190857 
	C566.536011,776.113770 566.599182,776.036682 566.599121,775.863464 
z"/>
<path fill="#2C2C2C" opacity="1.000000" stroke="none" 
	d="
M777.633179,639.712769 
	C775.589172,641.553101 773.558716,643.086731 770.853271,644.883545 
	C768.197815,645.395020 766.221619,645.816406 764.236267,645.864441 
	C748.422424,646.246826 732.599182,646.992493 716.794983,646.713379 
	C708.544678,646.567749 702.862305,648.839844 697.829163,655.710327 
	C686.711548,670.886108 675.051697,685.799316 659.870239,697.245056 
	C647.259155,706.752808 634.887451,716.956909 621.099731,724.438110 
	C599.579407,736.114746 576.635864,744.438354 552.150208,748.645935 
	C532.736572,751.982056 513.454102,752.521851 493.962677,751.307800 
	C474.669495,750.106140 456.237183,744.998352 438.001434,738.994263 
	C434.783783,737.641418 431.636322,736.074768 428.330719,734.989868 
	C424.211792,733.638062 421.860260,731.143738 421.599365,726.338989 
	C422.120483,725.329590 422.744049,724.725220 423.975647,724.192200 
	C450.137878,735.754883 476.594482,744.178284 504.816925,744.596863 
	C519.197449,744.810120 533.609314,742.914490 548.007019,741.972107 
	C568.391907,738.874634 587.692444,732.206238 606.526001,724.061584 
	C609.084229,722.955261 611.361267,721.198669 614.020447,719.507080 
	C615.019653,718.978394 615.766907,718.685669 617.112854,718.129517 
	C635.002014,708.766846 650.891785,697.785522 664.439941,683.085449 
	C669.158142,678.545410 673.604614,674.212646 678.332886,669.974060 
	C679.711304,669.852478 681.116821,669.998230 681.857178,669.365601 
	C690.150208,662.278381 697.267761,654.060303 701.159058,643.855774 
	C702.769470,639.632690 704.527466,638.719116 708.526001,638.757080 
	C728.272644,638.945068 748.022034,638.936218 767.769775,638.852051 
	C770.878296,638.838806 773.983582,638.084351 777.090393,637.672607 
	C777.275879,638.250488 777.461365,638.828308 777.633179,639.712769 
z"/>
<path fill="#101010" opacity="1.000000" stroke="none" 
	d="
M532.534302,279.132019 
	C532.621033,281.805145 533.297302,285.081177 532.130920,287.449890 
	C518.106812,315.929626 503.788727,344.264465 489.623138,372.674927 
	C488.449493,375.028778 487.825897,377.656891 486.632202,380.738922 
	C481.322693,390.074921 475.962158,398.644440 471.413391,407.625122 
	C463.445679,423.355743 455.966675,439.334198 448.300415,455.217224 
	C440.270691,471.853271 432.253418,488.495331 424.246155,505.142242 
	C419.142944,515.751770 414.067810,526.374756 408.783813,537.271790 
	C405.850037,541.382263 405.265472,547.164795 400.434448,547.464722 
	C399.463837,551.634644 399.257843,555.262085 397.805695,558.292297 
	C390.842133,572.823486 383.605347,587.225891 376.265015,601.571411 
	C375.501678,603.063110 373.412537,603.876404 372.044617,604.715698 
	C372.487823,603.215759 372.824982,602.004578 373.162109,600.793335 
	C372.907410,600.761108 372.652710,600.728821 372.398041,600.696594 
	C370.587860,602.790833 368.777679,604.885010 366.967529,606.979248 
	C371.796448,597.447632 376.625366,587.916016 381.623535,578.542297 
	C379.370514,584.421997 376.948212,590.143860 374.525879,595.865662 
	C374.955811,596.054993 375.385742,596.244324 375.815674,596.433655 
	C380.354675,587.366638 384.893707,578.299561 389.432739,569.232544 
	C389.056061,569.037354 388.679382,568.842163 388.302704,568.646973 
	C386.202759,571.764771 384.102783,574.882568 382.002808,578.000366 
	C385.242310,570.561462 388.149536,562.956238 391.775909,555.710999 
	C413.320282,512.666443 435.041534,469.710480 456.682861,426.714386 
	C476.375854,387.589142 496.056946,348.457855 515.708435,309.311676 
	C519.294434,302.168152 522.561340,294.860901 526.279480,287.788971 
	C527.875427,284.753448 530.247864,282.126129 532.534302,279.132019 
z"/>
<path fill="#101010" opacity="1.000000" stroke="none" 
	d="
M547.768372,741.734619 
	C533.609314,742.914490 519.197449,744.810120 504.816925,744.596863 
	C476.594482,744.178284 450.137878,735.754883 424.282593,724.072937 
	C426.008453,719.252075 429.587433,720.139771 433.270813,721.226257 
	C443.284332,724.180115 453.162872,727.844116 463.366577,729.833313 
	C474.730713,732.048706 486.370483,733.006042 497.934326,733.997192 
	C509.502380,734.988586 521.177429,734.882812 532.699341,736.192627 
	C537.778198,736.770020 542.594299,739.658081 547.768372,741.734619 
z"/>
<path fill="#151515" opacity="1.000000" stroke="none" 
	d="
M776.823059,637.475891 
	C773.983582,638.084351 770.878296,638.838806 767.769775,638.852051 
	C748.022034,638.936218 728.272644,638.945068 708.526001,638.757080 
	C704.527466,638.719116 702.769470,639.632690 701.159058,643.855774 
	C697.267761,654.060303 690.150208,662.278381 681.857178,669.365601 
	C681.116821,669.998230 679.711304,669.852478 678.477905,669.678223 
	C679.265503,667.726135 680.074585,666.080627 681.134766,664.617004 
	C685.297668,658.869812 689.963196,653.439636 693.660706,647.412415 
	C700.550232,636.181702 699.651794,637.971436 689.887939,631.963745 
	C694.130859,631.353027 698.366821,630.278748 702.617920,630.215027 
	C717.717957,629.988831 732.827148,630.312927 747.925049,630.023560 
	C758.219421,629.826172 767.530151,632.822144 776.823059,637.475891 
z"/>
<path fill="#151515" opacity="1.000000" stroke="none" 
	d="
M664.168152,683.292603 
	C650.891785,697.785522 635.002014,708.766846 617.376099,717.978638 
	C616.312561,714.181091 615.584595,710.271118 615.122375,706.200684 
	C615.833252,706.018738 616.278503,705.997131 616.986572,705.793823 
	C617.846497,704.779663 618.443542,703.947083 619.040649,703.114563 
	C631.471558,693.801331 643.902466,684.488098 656.898315,675.239868 
	C660.884094,675.550842 664.304993,675.796875 667.384094,676.018311 
	C666.365906,678.321289 665.267029,680.806946 664.168152,683.292603 
z"/>
<path fill="#101010" opacity="1.000000" stroke="none" 
	d="
M664.439941,683.085449 
	C665.267029,680.806946 666.365906,678.321289 667.384094,676.018311 
	C664.304993,675.796875 660.884094,675.550842 657.200439,675.085571 
	C660.850159,670.183533 664.969055,665.655884 668.631042,660.784790 
	C675.679260,651.409607 682.468811,641.840027 689.626831,632.157410 
	C699.651794,637.971436 700.550232,636.181702 693.660706,647.412415 
	C689.963196,653.439636 685.297668,658.869812 681.134766,664.617004 
	C680.074585,666.080627 679.265503,667.726135 678.196106,669.583984 
	C673.604614,674.212646 669.158142,678.545410 664.439941,683.085449 
z"/>
<path fill="#1D1D1D" opacity="1.000000" stroke="none" 
	d="
M769.777100,334.742462 
	C769.332275,336.482025 768.758179,337.894073 768.123108,339.631958 
	C760.355408,327.799316 752.905945,315.467987 744.881104,303.523224 
	C733.042114,285.901337 717.556030,271.532806 702.174683,257.125397 
	C697.938171,253.157135 693.334900,249.581390 689.074280,245.637100 
	C688.003418,244.645721 687.606506,242.926361 686.976196,241.259552 
	C699.593262,251.537918 712.753235,261.457428 724.516479,272.822632 
	C738.857300,286.678284 751.038269,302.532104 761.471863,319.605927 
	C764.409241,324.412689 766.933838,329.471680 769.777100,334.742462 
z"/>
<path fill="#1D1D1D" opacity="1.000000" stroke="none" 
	d="
M508.396820,256.946289 
	C511.341858,256.031555 514.614685,254.376709 517.934326,254.276794 
	C549.681519,253.320969 580.124634,259.601746 609.428467,271.600952 
	C612.084290,272.688477 614.280640,274.898224 616.848877,276.907349 
	C603.636597,272.727142 590.424377,267.658813 576.855835,263.865356 
	C558.711975,258.792786 540.021362,256.641663 521.179749,256.203339 
	C517.043091,256.107117 512.891235,256.668854 508.396820,256.946289 
z"/>
<path fill="#1D1D1D" opacity="1.000000" stroke="none" 
	d="
M366.976532,606.979858 
	C368.777679,604.885010 370.587860,602.790833 372.398041,600.696594 
	C372.652710,600.728821 372.907410,600.761108 373.162109,600.793335 
	C372.824982,602.004578 372.487823,603.215759 371.866577,604.952881 
	C371.060211,606.329224 370.537964,607.179626 370.015747,608.030029 
	C362.858795,622.126465 355.672180,636.208008 348.569122,650.331543 
	C347.082825,653.286865 346.201111,656.579834 344.480164,659.371643 
	C343.338226,661.224121 341.198517,662.461609 339.250427,663.986450 
	C342.598419,655.899658 346.201477,647.800842 350.230286,639.208862 
	C351.409058,637.455872 352.162079,636.195984 352.915131,634.936096 
	C353.141876,634.448975 353.368591,633.961853 353.940674,632.970459 
	C355.206482,630.325806 356.126892,628.185486 357.047302,626.045166 
	C357.047302,626.045166 357.021027,626.009583 357.308105,625.827209 
	C360.719452,619.421570 363.843689,613.198242 366.967957,606.974976 
	C366.967957,606.974976 366.985565,606.980469 366.976532,606.979858 
z"/>
<path fill="#1D1D1D" opacity="1.000000" stroke="none" 
	d="
M358.257385,246.807587 
	C357.860779,246.176956 357.777130,245.401947 357.623474,244.245361 
	C362.173004,240.395706 366.563599,236.554779 371.464691,233.545166 
	C379.220673,228.782471 387.318542,224.576584 395.615509,220.035553 
	C393.312164,222.382065 390.914429,225.192169 387.972260,227.207413 
	C378.277771,233.847641 368.386230,240.200211 358.257385,246.807587 
z"/>
<path fill="#2C2C2C" opacity="1.000000" stroke="none" 
	d="
M616.723755,705.975586 
	C616.278503,705.997131 615.833252,706.018738 615.223511,706.020996 
	C615.155457,691.731873 615.252014,677.462097 615.592651,662.708740 
	C616.162842,662.184998 616.489075,662.145691 616.815369,662.107422 
	C616.948059,675.389526 617.080750,688.671570 617.152954,702.799011 
	C616.969604,704.421448 616.846680,705.198486 616.723755,705.975586 
z"/>
<path fill="#101010" opacity="1.000000" stroke="none" 
	d="
M366.694397,607.166077 
	C363.843689,613.198242 360.719452,619.421570 357.327393,625.839966 
	C360.180054,619.809143 363.300446,613.583130 366.694397,607.166077 
z"/>
<path fill="#1D1D1D" opacity="1.000000" stroke="none" 
	d="
M616.870300,661.650146 
	C616.489075,662.145691 616.162842,662.184998 615.596680,662.258667 
	C615.743164,659.377625 616.129578,656.463257 616.757874,653.275452 
	C616.974854,655.732361 616.950073,658.462646 616.870300,661.650146 
z"/>
<path fill="#101010" opacity="1.000000" stroke="none" 
	d="
M356.804504,626.257935 
	C356.126892,628.185486 355.206482,630.325806 354.051331,632.725464 
	C354.731598,630.813477 355.646637,628.642151 356.804504,626.257935 
z"/>
<path fill="#1D1D1D" opacity="1.000000" stroke="none" 
	d="
M684.855225,239.597839 
	C683.765808,239.078979 682.476196,238.320999 681.103882,237.266464 
	C682.232483,237.766174 683.443726,238.562454 684.855225,239.597839 
z"/>
<path fill="#101010" opacity="1.000000" stroke="none" 
	d="
M352.657898,635.121338 
	C352.162079,636.195984 351.409058,637.455872 350.389893,638.892944 
	C350.882721,637.815552 351.641693,636.561035 352.657898,635.121338 
z"/>
<path fill="#101010" opacity="1.000000" stroke="none" 
	d="
M616.986572,705.793884 
	C616.846680,705.198486 616.969604,704.421448 617.175537,703.259277 
	C617.654053,702.927551 618.049500,702.980835 618.742798,703.074341 
	C618.443542,703.947083 617.846497,704.779663 616.986572,705.793884 
z"/>
<path fill="#1D1D1D" opacity="1.000000" stroke="none" 
	d="
M316.983337,384.985077 
	C316.042145,387.089539 315.100922,389.194000 313.837555,391.894592 
	C311.356659,397.336090 309.197937,402.181458 307.039215,407.026794 
	C306.715759,408.442017 306.392303,409.857239 305.849457,411.932007 
	C304.439545,415.735474 303.249023,418.879395 302.058472,422.023315 
	C302.043182,422.767090 302.027893,423.510895 301.865906,424.870850 
	C301.480835,425.992218 301.242401,426.497437 301.003998,427.002625 
	C300.376312,429.418182 299.748657,431.833710 298.932770,434.945007 
	C298.506042,436.764435 298.267517,437.888153 298.028961,439.011841 
	C298.023376,439.453644 298.017792,439.895477 297.807068,440.982300 
	C296.415833,447.633453 294.891754,453.597015 294.129211,459.656433 
	C293.176666,467.226044 293.143707,474.911346 292.192993,482.481293 
	C290.256439,497.900787 290.411896,513.264282 292.844635,528.580566 
	C294.171814,536.936218 295.839905,545.243896 297.580627,553.525635 
	C298.872589,559.672363 300.379944,565.786804 302.167908,571.803711 
	C302.469543,572.818726 304.681366,573.266113 306.010620,573.975769 
	C308.396179,581.048218 310.503174,588.230103 313.230164,595.168335 
	C317.721161,606.594727 322.413086,617.953674 327.454834,629.145325 
	C329.029175,632.640137 328.764313,634.656616 326.120209,637.401733 
	C322.764038,640.886108 320.139526,645.075317 316.799011,649.489868 
	C317.297485,647.750549 317.392761,646.272461 318.091125,645.179810 
	C321.080963,640.501892 319.835663,636.451660 317.655182,631.663025 
	C312.914368,621.251465 309.288116,610.339111 304.820190,599.795044 
	C298.069946,583.864929 294.605011,567.092651 292.042053,550.151611 
	C290.381104,539.173096 289.909729,528.014587 288.923523,516.032654 
	C288.927826,512.745178 288.914032,510.361847 288.900208,507.978516 
	C288.888367,507.245087 288.876495,506.511688 288.886383,504.976746 
	C288.614655,501.452515 288.321167,498.729767 288.027710,496.007019 
	C288.021759,495.561279 288.015778,495.115540 288.068726,493.921997 
	C288.753174,486.713318 289.365967,480.251190 290.006561,473.791840 
	C292.682526,446.808746 297.987000,420.499634 309.236084,395.590485 
	C311.344849,390.921082 312.052032,385.618744 313.560944,380.035126 
	C311.473541,380.173218 310.663208,380.176392 309.867950,380.287476 
	C303.878418,381.124115 303.319580,380.567230 303.413788,374.617584 
	C303.435852,373.223022 302.732086,371.817017 302.362244,370.416290 
	C301.934967,370.415344 301.507721,370.414368 301.080475,370.413422 
	C300.257721,372.095978 299.434998,373.778534 298.094818,376.519318 
	C295.321442,372.596924 293.101898,368.991394 290.404633,365.788147 
	C288.179535,363.145660 285.477478,360.870697 282.786926,358.678101 
	C282.111359,358.127563 280.124359,358.034851 279.664001,358.552887 
	C275.784119,362.918671 273.892883,360.172180 271.891022,356.730103 
	C271.253235,355.633453 270.017731,354.884430 269.055725,353.976349 
	C270.520447,351.195435 271.918549,348.376984 273.460602,345.639618 
	C284.639648,325.795258 297.035339,306.784515 312.452057,289.919525 
	C320.933014,280.641846 329.575317,271.506348 338.345154,262.501831 
	C340.488159,260.301453 343.418182,258.867584 346.288513,256.994873 
	C349.097870,256.141571 352.397888,256.132690 353.978363,254.479706 
	C361.836517,246.260971 371.592773,241.594910 382.152985,238.291595 
	C389.627289,235.953568 395.983795,241.292297 395.051392,249.145645 
	C394.711792,252.006210 395.543915,253.532166 398.185669,254.431961 
	C402.566589,255.924179 405.967224,260.081726 411.301086,259.141571 
	C411.924072,259.031769 413.010254,260.137756 413.495911,260.919678 
	C415.106598,263.513031 411.365204,273.586823 409.005920,275.588867 
	C405.095215,278.907532 401.709320,282.844666 398.006470,286.895142 
	C389.982056,293.824707 381.917206,300.223602 374.154175,306.969818 
	C359.376495,319.811920 346.717346,334.511932 336.375793,351.170990 
	C331.820343,358.509308 327.189850,365.801697 322.704102,373.182159 
	C321.333191,375.437836 320.330719,377.917450 318.891846,380.907440 
	C318.077240,382.675293 317.530304,383.830200 316.983337,384.985077 
M277.085144,355.018036 
	C277.085144,353.453430 277.085144,351.888855 277.085144,350.324249 
	C276.567627,350.224792 276.050110,350.125336 275.532593,350.025879 
	C274.947540,351.354858 274.180969,352.650513 273.925903,354.040070 
	C273.872925,354.328522 275.717224,354.965210 277.085144,355.018036 
M398.978271,258.030792 
	C398.978271,258.030792 398.951935,257.996368 398.978271,258.030792 
z"/>
<path fill="#1D1D1D" opacity="1.000000" stroke="none" 
	d="
M348.298737,254.849319 
	C350.419647,252.697876 352.878632,250.450409 355.676666,248.108643 
	C353.556091,250.260666 351.096436,252.506973 348.298737,254.849319 
z"/>
<path fill="#1D1D1D" opacity="1.000000" stroke="none" 
	d="
M767.917419,341.111359 
	C767.605713,341.369446 767.009033,341.709442 766.201660,341.939819 
	C766.538086,341.617920 767.085266,341.405609 767.917419,341.111359 
z"/>
<path fill="#151515" opacity="1.000000" stroke="none" 
	d="
M268.861084,354.265991 
	C270.017731,354.884430 271.253235,355.633453 271.891022,356.730103 
	C273.892883,360.172180 275.784119,362.918671 279.664001,358.552887 
	C280.124359,358.034851 282.111359,358.127563 282.786926,358.678101 
	C285.477478,360.870697 288.179535,363.145660 290.404633,365.788147 
	C293.101898,368.991394 295.321442,372.596924 298.094818,376.519318 
	C299.434998,373.778534 300.257721,372.095978 301.080475,370.413422 
	C301.507721,370.414368 301.934967,370.415344 302.362244,370.416290 
	C302.732086,371.817017 303.435852,373.223022 303.413788,374.617584 
	C303.319580,380.567230 303.878418,381.124115 309.867950,380.287476 
	C310.663208,380.176392 311.473541,380.173218 313.560944,380.035126 
	C312.052032,385.618744 311.344849,390.921082 309.236084,395.590485 
	C297.987000,420.499634 292.682526,446.808746 290.006561,473.791840 
	C289.365967,480.251190 288.753174,486.713318 288.063171,493.587708 
	C286.169159,494.001099 284.339172,493.977417 282.509979,494.005341 
	C277.289948,494.085022 271.711853,494.810455 272.073944,486.718445 
	C272.122742,485.627716 270.909454,484.480499 270.238342,483.284149 
	C274.573975,479.407196 275.605469,485.795776 278.546295,485.724457 
	C279.963715,479.833801 277.614807,477.102417 272.431122,478.598114 
	C269.114044,479.555237 266.643646,478.606934 265.757233,475.364319 
	C264.938965,472.371063 263.339966,471.296783 260.412964,471.386261 
	C259.301453,471.420197 258.126862,470.995300 257.058624,470.579956 
	C250.397858,467.990112 248.474976,468.508789 243.794464,474.473572 
	C239.415726,472.654785 237.487854,469.646179 237.348450,464.627289 
	C236.847031,446.573334 242.220703,429.449432 245.562653,412.049500 
	C247.196442,403.543182 251.085434,395.428223 254.320831,387.281982 
	C258.291504,377.284393 262.631409,367.432983 266.856049,357.537384 
	C267.307983,356.478790 268.055847,355.546539 268.861084,354.265991 
z"/>
<path fill="#151515" opacity="1.000000" stroke="none" 
	d="
M306.005035,573.543518 
	C304.681366,573.266113 302.469543,572.818726 302.167908,571.803711 
	C300.379944,565.786804 298.872589,559.672363 297.580627,553.525635 
	C295.839905,545.243896 294.171814,536.936218 292.844635,528.580566 
	C290.411896,513.264282 290.256439,497.900787 292.192993,482.481293 
	C293.143707,474.911346 293.176666,467.226044 294.129211,459.656433 
	C294.891754,453.597015 296.415833,447.633453 297.801758,441.313660 
	C298.149567,445.442596 298.778320,449.932220 298.349335,454.318390 
	C297.335083,464.688873 295.341339,474.977325 294.626984,485.359772 
	C293.767426,497.852539 292.753479,510.293152 297.632477,522.641968 
	C300.236176,529.232056 299.790924,536.996277 300.955475,544.192810 
	C302.518402,553.851440 304.307434,563.473511 306.005035,573.543518 
z"/>
<path fill="#151515" opacity="1.000000" stroke="none" 
	d="
M237.267334,489.206482 
	C238.027573,487.794250 238.747635,486.715759 239.829193,485.095795 
	C241.707764,488.190369 243.089157,490.465942 244.851852,493.369659 
	C240.966507,493.562500 237.635864,494.516510 237.267334,489.206482 
z"/>
<path fill="#151515" opacity="1.000000" stroke="none" 
	d="
M307.359680,406.897461 
	C309.197937,402.181458 311.356659,397.336090 313.742981,392.237457 
	C312.674255,397.252747 312.524750,403.009277 307.359680,406.897461 
z"/>
<path fill="#151515" opacity="1.000000" stroke="none" 
	d="
M287.739502,496.179932 
	C288.321167,498.729767 288.614655,501.452515 288.887115,504.610016 
	C285.473572,502.622925 283.565765,499.959412 287.739502,496.179932 
z"/>
<path fill="#151515" opacity="1.000000" stroke="none" 
	d="
M302.327026,421.826630 
	C303.249023,418.879395 304.439545,415.735474 305.812256,412.295349 
	C304.861511,415.209412 303.728546,418.419678 302.327026,421.826630 
z"/>
<path fill="#151515" opacity="1.000000" stroke="none" 
	d="
M240.006653,482.308533 
	C239.391312,481.514191 239.037445,480.722473 238.683578,479.930725 
	C239.563080,479.932159 240.442596,479.933624 241.322083,479.935059 
	C240.970749,480.727051 240.619431,481.519073 240.006653,482.308533 
z"/>
<path fill="#151515" opacity="1.000000" stroke="none" 
	d="
M288.679718,508.238983 
	C288.914032,510.361847 288.927826,512.745178 288.925110,515.574768 
	C288.758789,513.513794 288.608978,511.006622 288.679718,508.238983 
z"/>
<path fill="#151515" opacity="1.000000" stroke="none" 
	d="
M317.240051,384.850220 
	C317.530304,383.830200 318.077240,382.675293 318.810333,381.259827 
	C318.496582,382.237946 317.996643,383.476624 317.240051,384.850220 
z"/>
<path fill="#151515" opacity="1.000000" stroke="none" 
	d="
M298.228943,438.815552 
	C298.267517,437.888153 298.506042,436.764435 298.873108,435.320374 
	C298.810760,436.206421 298.619843,437.412811 298.228943,438.815552 
z"/>
<path fill="#151515" opacity="1.000000" stroke="none" 
	d="
M301.157196,426.875854 
	C301.242401,426.497437 301.480835,425.992218 301.854797,425.242676 
	C301.763672,425.581909 301.537018,426.165466 301.157196,426.875854 
z"/>
<path fill="#151515" opacity="1.000000" stroke="none" 
	d="
M370.224976,608.241821 
	C370.537964,607.179626 371.060211,606.329224 371.760498,605.241638 
	C373.412537,603.876404 375.501678,603.063110 376.265015,601.571411 
	C383.605347,587.225891 390.842133,572.823486 397.805695,558.292297 
	C399.257843,555.262085 399.463837,551.634644 400.434448,547.464722 
	C405.265472,547.164795 405.850037,541.382263 409.019440,537.457092 
	C410.933350,537.207947 412.423645,537.108093 413.895233,536.884766 
	C415.592102,536.627197 417.513245,535.574707 418.915985,536.066956 
	C423.591827,537.707886 429.220215,538.209229 431.044373,544.232849 
	C431.145813,544.567810 432.098602,544.644897 433.082397,544.993347 
	C433.082397,542.848022 433.082397,541.151062 433.082397,539.096069 
	C435.399475,539.927795 437.320709,540.617432 439.247467,541.309082 
	C442.206116,536.876160 435.696014,532.149536 440.484131,527.918884 
	C441.320068,528.932190 442.305115,529.586609 442.456085,530.396484 
	C443.462982,535.797852 446.043396,537.310852 451.228882,534.853821 
	C453.964783,533.557495 455.810516,535.056763 456.608063,538.146423 
	C457.425232,541.312073 457.927032,545.351379 460.103180,547.170593 
	C462.742432,549.377014 463.060547,551.197327 462.351135,553.900391 
	C461.731964,556.259766 462.218628,557.530273 464.869934,557.310608 
	C463.908234,559.601562 462.968506,561.510254 462.170929,563.476685 
	C459.599457,569.817078 456.136169,575.980713 457.812927,583.496887 
	C454.767822,588.149719 455.688202,590.831726 460.793884,591.500977 
	C465.143677,592.071106 469.597687,591.846008 474.215515,592.189331 
	C475.947388,592.257629 477.469299,592.109253 479.460419,591.954956 
	C487.949158,591.973450 495.968719,591.997803 504.228485,592.269897 
	C508.134155,594.013000 511.748840,595.652466 515.477966,596.967468 
	C520.168640,598.621582 524.861145,600.405090 529.934753,597.798035 
	C530.949280,597.276672 533.509949,597.691406 533.963135,598.477966 
	C537.647095,604.872925 543.968323,601.740112 548.605286,601.836060 
	C556.679871,602.003174 556.700256,601.019348 557.482300,608.204773 
	C565.554993,607.600281 573.613464,607.072693 581.640259,606.239929 
	C582.230042,606.178772 582.897217,603.925537 582.945496,602.669006 
	C582.975159,601.896973 581.895447,601.082275 580.346619,598.963501 
	C587.223511,601.700745 589.725952,598.808472 591.199707,594.070862 
	C591.585083,592.832153 592.352234,591.642395 593.193787,590.639771 
	C593.760986,589.963867 595.140869,589.071533 595.499878,589.301636 
	C596.316223,589.824768 597.240173,590.997559 597.210632,591.875671 
	C597.105103,595.013855 596.974854,598.230286 596.201111,601.249695 
	C594.808594,606.683350 595.211365,607.941528 600.533081,609.482361 
	C603.930908,610.466187 607.479309,610.948181 607.843079,615.636292 
	C607.884399,616.169189 609.899902,616.548889 611.000000,616.999634 
	C611.330688,624.128479 611.985474,631.259888 611.928833,638.385681 
	C611.782227,656.829041 611.338196,675.270325 610.978577,693.711731 
	C610.846619,700.477112 609.468811,701.919006 602.659790,701.954102 
	C587.502808,702.032288 572.344971,702.027405 557.187988,701.958496 
	C550.987122,701.930298 550.072021,700.946960 550.028259,694.540833 
	C549.957825,684.214233 550.049316,673.886536 549.963623,663.560181 
	C549.941650,660.912292 549.655457,658.244812 549.238098,655.626587 
	C548.515015,651.089722 545.805908,648.541687 541.143616,648.279297 
	C538.651428,648.139099 536.154236,648.011353 533.659241,648.008667 
	C510.872955,647.983887 488.086487,647.943298 465.300476,648.020264 
	C460.607941,648.036133 456.394653,647.286987 453.045563,643.643250 
	C451.247437,641.686890 449.229248,641.204529 446.935791,643.194092 
	C444.466553,645.336182 441.338684,643.998840 441.797516,641.657959 
	C442.951050,635.772522 437.126801,633.661011 436.860718,630.232849 
	C432.947144,630.009644 429.703735,629.478821 426.520844,629.726440 
	C422.063293,630.073181 417.636108,630.918091 413.224976,631.711487 
	C410.888458,632.131775 409.028656,632.458618 408.365723,629.280518 
	C408.116699,628.086548 406.466095,626.204529 405.697784,626.315857 
	C404.352997,626.510620 402.534637,627.760864 402.082367,628.996338 
	C400.616516,633.000549 398.607880,633.482544 394.888123,631.658264 
	C393.517548,630.986145 390.972382,631.832214 389.381470,632.728638 
	C387.735291,633.656189 386.288910,636.877686 385.294647,636.657654 
	C382.365997,636.009583 378.886810,634.805847 377.137360,632.612061 
	C374.735565,629.600220 373.155823,626.245789 368.846008,625.392517 
	C368.081085,625.240967 367.063110,622.955872 367.284851,621.889404 
	C367.885284,619.001892 369.225677,616.276794 370.000977,613.413635 
	C370.427917,611.836792 370.307709,610.111877 370.224976,608.241821 
M448.658020,539.755310 
	C449.300262,539.751770 449.942505,539.748230 450.584747,539.744690 
	C450.517609,539.461365 450.450470,539.178040 450.383362,538.894714 
	C449.779663,539.064392 449.175964,539.234070 448.658020,539.755310 
M520.857666,604.290833 
	C520.604370,604.315369 520.351135,604.339905 520.097839,604.364380 
	C520.132446,604.510437 520.166992,604.656494 520.201599,604.802551 
	C520.436584,604.703918 520.671631,604.605347 520.857666,604.290833 
M588.676086,605.812500 
	C588.650391,605.598572 588.624695,605.384705 588.598999,605.170776 
	C588.475403,605.193604 588.351807,605.216370 588.228210,605.239197 
	C588.315369,605.440247 588.402527,605.641357 588.676086,605.812500 
z"/>
<path fill="#1D1D1D" opacity="1.000000" stroke="none" 
	d="
M610.998779,616.549561 
	C609.899902,616.548889 607.884399,616.169189 607.843079,615.636292 
	C607.479309,610.948181 603.930908,610.466187 600.533081,609.482361 
	C595.211365,607.941528 594.808594,606.683350 596.201111,601.249695 
	C596.974854,598.230286 597.105103,595.013855 597.210632,591.875671 
	C597.240173,590.997559 596.316223,589.824768 595.499878,589.301636 
	C595.140869,589.071533 593.760986,589.963867 593.193787,590.639771 
	C592.352234,591.642395 591.585083,592.832153 591.199707,594.070862 
	C589.725952,598.808472 587.223511,601.700745 580.346619,598.963501 
	C581.895447,601.082275 582.975159,601.896973 582.945496,602.669006 
	C582.897217,603.925537 582.230042,606.178772 581.640259,606.239929 
	C573.613464,607.072693 565.554993,607.600281 557.482300,608.204773 
	C556.700256,601.019348 556.679871,602.003174 548.605286,601.836060 
	C543.968323,601.740112 537.647095,604.872925 533.963135,598.477966 
	C533.509949,597.691406 530.949280,597.276672 529.934753,597.798035 
	C524.861145,600.405090 520.168640,598.621582 515.477966,596.967468 
	C511.748840,595.652466 508.134155,594.013000 504.698242,592.254272 
	C516.988159,591.975891 529.048584,591.970459 541.109009,591.939209 
	C544.332275,591.930847 547.487732,591.705139 549.099976,587.701355 
	C549.482849,584.655212 550.004333,582.009155 549.963928,579.371765 
	C549.747559,565.219360 549.167847,551.069763 549.125366,536.917969 
	C549.001160,495.590820 549.072144,454.263092 549.066650,412.935577 
	C550.489197,413.773682 551.936340,414.572968 553.329651,415.457092 
	C557.773621,418.277008 562.202026,419.776367 567.176331,416.438141 
	C570.330994,414.321136 573.211609,415.131042 575.298645,418.308258 
	C577.922485,422.302704 580.512268,426.320770 583.033875,430.380127 
	C583.528931,431.177063 583.992737,432.252899 583.880920,433.124359 
	C583.250977,438.032440 585.109924,438.582458 589.321411,436.917816 
	C593.895569,435.109772 599.017212,431.966919 602.390015,439.059570 
	C602.675842,439.660675 605.056885,440.088562 605.392456,439.691345 
	C606.475342,438.409271 607.610657,436.744720 607.728210,435.153900 
	C608.081238,430.371857 607.744629,425.537598 608.125305,420.759430 
	C608.298706,418.581299 609.524841,416.487000 610.527710,414.112823 
	C610.860168,442.146851 610.975708,470.422729 611.006470,498.698639 
	C611.041443,530.815857 611.000671,562.933228 610.690308,595.391602 
	C608.678345,594.872681 606.968933,594.012695 605.311523,593.178894 
	C597.897034,604.757019 597.897034,604.756958 610.532593,607.853394 
	C610.693787,607.892944 610.851135,607.948181 611.010254,607.996094 
	C611.005981,610.697205 611.001770,613.398376 610.998779,616.549561 
z"/>
<path fill="#151515" opacity="1.000000" stroke="none" 
	d="
M611.139465,607.628174 
	C610.851135,607.948181 610.693787,607.892944 610.532593,607.853394 
	C597.897034,604.756958 597.897034,604.757019 605.311523,593.178894 
	C606.968933,594.012695 608.678345,594.872681 610.688965,595.859375 
	C611.083008,599.744141 611.175842,603.502136 611.139465,607.628174 
z"/>
<path fill="#1D1D1D" opacity="1.000000" stroke="none" 
	d="
M610.198608,405.603333 
	C608.708618,395.587067 607.159851,385.184631 609.903320,374.372925 
	C610.143250,384.408295 610.236694,394.811768 610.198608,405.603333 
z"/>
<path fill="#1D1D1D" opacity="1.000000" stroke="none" 
	d="
M464.957031,556.954834 
	C462.218628,557.530273 461.731964,556.259766 462.351135,553.900391 
	C463.060547,551.197327 462.742432,549.377014 460.103180,547.170593 
	C457.927032,545.351379 457.425232,541.312073 456.608063,538.146423 
	C455.810516,535.056763 453.964783,533.557495 451.228882,534.853821 
	C446.043396,537.310852 443.462982,535.797852 442.456085,530.396484 
	C442.305115,529.586609 441.320068,528.932190 440.484131,527.918884 
	C435.696014,532.149536 442.206116,536.876160 439.247467,541.309082 
	C437.320709,540.617432 435.399475,539.927795 433.082397,539.096069 
	C433.082397,541.151062 433.082397,542.848022 433.082397,544.993347 
	C432.098602,544.644897 431.145813,544.567810 431.044373,544.232849 
	C429.220215,538.209229 423.591827,537.707886 418.915985,536.066956 
	C417.513245,535.574707 415.592102,536.627197 413.895233,536.884766 
	C412.423645,537.108093 410.933350,537.207947 409.215698,537.177063 
	C414.067810,526.374756 419.142944,515.751770 424.246155,505.142242 
	C432.253418,488.495331 440.270691,471.853271 448.300415,455.217224 
	C455.966675,439.334198 463.445679,423.355743 471.413391,407.625122 
	C475.962158,398.644440 481.322693,390.074921 486.576874,381.121552 
	C486.475464,382.648132 486.114868,384.373413 485.448120,387.563293 
	C493.769897,380.073242 501.009003,383.721893 508.201477,387.207367 
	C510.407745,388.276520 512.346130,389.070129 510.847321,392.753235 
	C509.082336,397.090393 511.404175,400.065277 515.895752,401.217377 
	C522.295105,402.858765 524.920410,406.370331 524.493958,412.936890 
	C524.338623,415.328003 525.122009,416.082458 527.529785,415.316284 
	C527.215393,416.815033 526.794983,418.083069 526.237671,419.287750 
	C515.195618,443.153961 504.001984,466.951233 493.133881,490.896271 
	C486.603271,505.284698 480.543274,519.887573 474.334198,534.420715 
	C471.137939,541.901978 468.078369,549.441589 464.957031,556.954834 
z"/>
<path fill="#101010" opacity="1.000000" stroke="none" 
	d="
M464.869934,557.310608 
	C468.078369,549.441589 471.137939,541.901978 474.334198,534.420715 
	C480.543274,519.887573 486.603271,505.284698 493.133881,490.896271 
	C504.001984,466.951233 515.195618,443.153961 526.237671,419.287750 
	C526.794983,418.083069 527.215393,416.815033 527.773193,415.215149 
	C530.513550,408.611267 533.091370,402.328583 535.883179,396.142456 
	C537.354004,392.883392 539.401978,389.652618 543.637756,390.565002 
	C547.647827,391.428802 548.862122,394.846344 548.958679,398.587402 
	C549.074158,403.060425 549.033813,407.537506 549.063843,412.474182 
	C549.072144,454.263092 549.001160,495.590820 549.125366,536.917969 
	C549.167847,551.069763 549.747559,565.219360 549.963928,579.371765 
	C550.004333,582.009155 549.482849,584.655212 548.780762,587.567810 
	C544.775818,584.528564 540.434448,584.567444 536.003174,584.617126 
	C535.988403,583.532959 535.977234,582.810669 536.299805,581.945923 
	C538.037720,580.091553 540.353455,578.535400 540.677673,576.638794 
	C541.709473,570.602966 542.316284,564.449097 542.484802,558.324280 
	C542.642700,552.580261 541.823181,546.814575 541.839294,541.059631 
	C541.849426,537.435852 542.936401,533.817261 542.969727,530.191040 
	C543.108704,515.054565 542.954102,499.915619 543.052063,484.778503 
	C543.198608,462.120850 543.508850,439.464233 543.652527,416.806580 
	C543.686340,411.478302 543.332886,406.147614 543.115356,399.531738 
	C541.003906,401.202576 539.914734,401.627594 539.594910,402.379730 
	C514.492004,461.417816 489.449249,520.481506 463.969543,580.562988 
	C483.680908,581.076477 502.855286,581.575928 522.024048,582.439087 
	C522.011169,583.531738 522.003906,584.260681 521.530151,585.003662 
	C516.040588,584.990234 511.017548,584.962891 505.712646,584.698730 
	C500.214325,582.312622 495.054626,581.938049 489.534668,584.968628 
	C478.713806,584.407959 468.361694,583.833740 458.009552,583.259460 
	C456.136169,575.980713 459.599457,569.817078 462.170929,563.476685 
	C462.968506,561.510254 463.908234,559.601562 464.869934,557.310608 
M462.788116,571.200745 
	C462.791260,571.358215 462.770172,571.521301 462.804413,571.671631 
	C462.838013,571.818970 462.927948,571.953430 462.993134,572.093567 
	C463.813599,571.159729 464.634064,570.225830 465.454498,569.291992 
	C465.074951,569.034546 464.695374,568.777039 464.315796,568.519592 
	C463.837860,569.263550 463.359924,570.007446 462.788116,571.200745 
M469.518951,557.483154 
	C469.518951,557.483154 469.486237,557.488220 469.518951,557.483154 
z"/>
<path fill="#1D1D1D" opacity="1.000000" stroke="none" 
	d="
M591.826538,431.139771 
	C591.355835,430.928772 591.015381,430.601166 590.674927,430.273529 
	C591.001099,430.011139 591.327209,429.748779 591.653320,429.486389 
	C591.754517,429.998657 591.855713,430.510925 591.826538,431.139771 
z"/>
<path fill="#1D1D1D" opacity="1.000000" stroke="none" 
	d="
M562.139648,413.135437 
	C562.402161,413.205414 562.587646,413.346527 562.773132,413.487671 
	C562.670837,413.583893 562.568542,413.680084 562.466248,413.776306 
	C562.331726,413.586365 562.197205,413.396484 562.139648,413.135437 
z"/>
<path fill="#151515" opacity="1.000000" stroke="none" 
	d="
M438.084229,739.338867 
	C456.237183,744.998352 474.669495,750.106140 493.962677,751.307800 
	C513.454102,752.521851 532.736572,751.982056 552.150208,748.645935 
	C576.635864,744.438354 599.579407,736.114746 621.099731,724.438110 
	C634.887451,716.956909 647.259155,706.752808 659.870239,697.245056 
	C675.051697,685.799316 686.711548,670.886108 697.829163,655.710327 
	C702.862305,648.839844 708.544678,646.567749 716.794983,646.713379 
	C732.599182,646.992493 748.422424,646.246826 764.236267,645.864441 
	C766.221619,645.816406 768.197815,645.395020 770.589478,645.075989 
	C756.140564,673.555298 738.005493,699.917480 715.320801,722.691528 
	C703.288696,734.771118 689.271606,744.911377 675.854797,755.554260 
	C670.823364,759.545349 668.386414,758.791687 663.287598,754.456665 
	C661.303589,752.769714 658.998291,751.460693 656.573486,749.797119 
	C652.753357,757.536682 645.433716,753.447021 639.148560,756.036316 
	C641.062195,757.665344 642.630981,759.000854 644.731384,760.788879 
	C639.995789,761.972046 635.924438,765.914368 631.200073,761.476196 
	C620.236755,768.763611 623.013245,755.539734 617.737549,753.130188 
	C612.507935,757.203369 616.708984,763.820923 614.792969,768.715759 
	C612.613281,767.701111 610.404907,765.781372 609.070923,766.266418 
	C607.191833,766.949585 605.738892,769.268799 604.501038,771.149902 
	C602.264099,774.549011 599.604004,775.561096 596.083313,773.293335 
	C586.509399,767.126770 576.059998,767.374207 565.480164,769.268311 
	C561.726501,769.940308 558.917725,769.658936 556.135986,766.531860 
	C553.436401,763.497009 550.047302,760.862366 546.494629,758.893433 
	C544.828308,757.970032 542.064026,759.003601 539.800354,759.187500 
	C536.236511,759.477051 532.679382,759.868225 529.111328,760.081726 
	C526.638306,760.229736 524.117615,759.897217 521.678040,760.224915 
	C515.823059,761.011292 510.003754,762.062561 504.168671,762.998169 
	C503.678070,763.076904 503.039886,763.309753 502.700592,763.099487 
	C495.378632,758.559875 488.557098,763.507202 481.497742,763.887878 
	C477.522644,764.102173 473.434235,761.429932 469.332275,760.290710 
	C464.965485,759.078003 460.506012,758.202454 456.120087,757.053406 
	C454.166809,756.541687 451.818024,756.220276 450.478699,754.942566 
	C447.048676,751.670105 444.014740,747.967773 440.968964,744.315186 
	C439.826538,742.945068 439.089142,741.237305 438.084229,739.338867 
z"/>
<path fill="#151515" opacity="1.000000" stroke="none" 
	d="
M652.532471,760.618286 
	C652.978149,759.667175 653.551453,758.852844 654.124817,758.038452 
	C654.499939,758.451111 654.875061,758.863770 655.250244,759.276367 
	C654.386841,759.769226 653.523499,760.262085 652.532471,760.618286 
z"/>
<path fill="#151515" opacity="1.000000" stroke="none" 
	d="
M648.814636,763.567200 
	C649.027100,764.182251 649.072266,764.747681 649.117493,765.313110 
	C648.716919,765.208252 648.316284,765.103394 647.915710,764.998474 
	C648.159607,764.504822 648.403503,764.011230 648.814636,763.567200 
z"/>
<path fill="#151515" opacity="1.000000" stroke="none" 
	d="
M643.381104,771.907349 
	C643.514343,771.899597 643.608887,771.934570 643.703491,771.969482 
	C643.583130,771.962952 643.462769,771.956482 643.381104,771.907349 
z"/>
<path fill="#151515" opacity="1.000000" stroke="none" 
	d="
M566.630737,775.911499 
	C566.599182,776.036682 566.536011,776.113770 566.472839,776.190857 
	C566.514954,776.081726 566.557068,775.972595 566.630737,775.911499 
z"/>
<path fill="#151515" opacity="1.000000" stroke="none" 
	d="
M382.001404,578.000183 
	C384.102783,574.882568 386.202759,571.764771 388.302704,568.646973 
	C388.679382,568.842163 389.056061,569.037354 389.432739,569.232544 
	C384.893707,578.299561 380.354675,587.366638 375.815674,596.433655 
	C375.385742,596.244324 374.955811,596.054993 374.525879,595.865662 
	C376.948212,590.143860 379.370514,584.421997 381.897247,578.351562 
	C382.001678,578.002930 382.000000,578.000000 382.001404,578.000183 
z"/>
<path fill="#151515" opacity="1.000000" stroke="none" 
	d="
M276.886139,355.229736 
	C275.717224,354.965210 273.872925,354.328522 273.925903,354.040070 
	C274.180969,352.650513 274.947540,351.354858 275.532593,350.025879 
	C276.050110,350.125336 276.567627,350.224792 277.085144,350.324249 
	C277.085144,351.888855 277.085144,353.453430 276.886139,355.229736 
z"/>
<path fill="#2C2C2C" opacity="1.000000" stroke="none" 
	d="
M398.965088,258.013580 
	C398.951935,257.996368 398.978271,258.030792 398.965088,258.013580 
z"/>
<path fill="#2C2C2C" opacity="1.000000" stroke="none" 
	d="
M457.812927,583.496887 
	C468.361694,583.833740 478.713806,584.407959 490.000305,584.992554 
	C495.954590,584.980469 500.974579,584.958008 505.994537,584.935608 
	C511.017548,584.962891 516.040588,584.990234 521.994873,585.023621 
	C527.286316,585.012817 531.646484,584.995911 536.006714,584.979004 
	C540.434448,584.567444 544.775818,584.528564 548.660095,587.971924 
	C547.487732,591.705139 544.332275,591.930847 541.109009,591.939209 
	C529.048584,591.970459 516.988159,591.975891 504.458008,592.006592 
	C495.968719,591.997803 487.949158,591.973450 479.044952,591.945801 
	C476.775421,591.952637 475.390503,591.962646 474.005615,591.972656 
	C469.597687,591.846008 465.143677,592.071106 460.793884,591.500977 
	C455.688202,590.831726 454.767822,588.149719 457.812927,583.496887 
z"/>
<path fill="#1D1D1D" opacity="1.000000" stroke="none" 
	d="
M448.615173,539.579529 
	C449.175964,539.234070 449.779663,539.064392 450.383362,538.894714 
	C450.450470,539.178040 450.517609,539.461365 450.584747,539.744690 
	C449.942505,539.748230 449.300262,539.751770 448.615173,539.579529 
z"/>
<path fill="#1D1D1D" opacity="1.000000" stroke="none" 
	d="
M474.215515,592.189331 
	C475.390503,591.962646 476.775421,591.952637 478.575775,591.951721 
	C477.469299,592.109253 475.947388,592.257629 474.215515,592.189331 
z"/>
<path fill="#1D1D1D" opacity="1.000000" stroke="none" 
	d="
M520.882141,604.398804 
	C520.671631,604.605347 520.436584,604.703918 520.201599,604.802551 
	C520.166992,604.656494 520.132446,604.510437 520.097839,604.364380 
	C520.351135,604.339905 520.604370,604.315369 520.882141,604.398804 
z"/>
<path fill="#1D1D1D" opacity="1.000000" stroke="none" 
	d="
M588.582886,605.827454 
	C588.402527,605.641357 588.315369,605.440247 588.228210,605.239197 
	C588.351807,605.216370 588.475403,605.193604 588.598999,605.170776 
	C588.624695,605.384705 588.650391,605.598572 588.582886,605.827454 
z"/>
<path fill="#000000" opacity="1.000000" stroke="none" 
	d="
M522.029663,582.075439 
	C502.855286,581.575928 483.680908,581.076477 463.969543,580.562988 
	C489.449249,520.481506 514.492004,461.417816 539.594910,402.379730 
	C539.914734,401.627594 541.003906,401.202576 543.115356,399.531738 
	C543.332886,406.147614 543.686340,411.478302 543.652527,416.806580 
	C543.508850,439.464233 543.198608,462.120850 543.052063,484.778503 
	C542.954102,499.915619 543.108704,515.054565 542.969727,530.191040 
	C542.936401,533.817261 541.849426,537.435852 541.839294,541.059631 
	C541.823181,546.814575 542.642700,552.580261 542.484802,558.324280 
	C542.316284,564.449097 541.709473,570.602966 540.677673,576.638794 
	C540.353455,578.535400 538.037720,580.091553 535.838867,581.932617 
	C530.705994,582.066284 526.367798,582.070862 522.029663,582.075439 
z"/>
<path fill="#151515" opacity="1.000000" stroke="none" 
	d="
M522.024048,582.439087 
	C526.367798,582.070862 530.705994,582.066284 535.505127,582.075073 
	C535.977234,582.810669 535.988403,583.532959 536.003174,584.617126 
	C531.646484,584.995911 527.286316,585.012817 522.461365,585.009644 
	C522.003906,584.260681 522.011169,583.531738 522.024048,582.439087 
z"/>
<path fill="#151515" opacity="1.000000" stroke="none" 
	d="
M505.712646,584.698730 
	C500.974579,584.958008 495.954590,584.980469 490.468994,584.979004 
	C495.054626,581.938049 500.214325,582.312622 505.712646,584.698730 
z"/>
<path fill="#151515" opacity="1.000000" stroke="none" 
	d="
M462.835022,570.976074 
	C463.359924,570.007446 463.837860,569.263550 464.315796,568.519592 
	C464.695374,568.777039 465.074951,569.034546 465.454498,569.291992 
	C464.634064,570.225830 463.813599,571.159729 462.993134,572.093567 
	C462.927948,571.953430 462.838013,571.818970 462.804413,571.671631 
	C462.770172,571.521301 462.791260,571.358215 462.835022,570.976074 
z"/>
<path fill="#151515" opacity="1.000000" stroke="none" 
	d="
M469.502594,557.485718 
	C469.486237,557.488220 469.518951,557.483154 469.502594,557.485718 
z"/>
</svg>