<?xml version="1.0" standalone="no"?>
<!DOCTYPE svg PUBLIC "-//W3C//DTD SVG 20010904//EN"
 "http://www.w3.org/TR/2001/REC-SVG-20010904/DTD/svg10.dtd">
<svg version="1.0" xmlns="http://www.w3.org/2000/svg"
 width="1024.000000pt" height="1024.000000pt" viewBox="0 0 1024.000000 1024.000000"
 preserveAspectRatio="xMidYMid meet">
<metadata>
Created by potrace 1.16, written by Peter Selinger 2001-2019
</metadata>
<g transform="translate(0.000000,1024.000000) scale(0.100000,-0.100000)"
fill="#FFFFFF" stroke="none">
<path d="M0 5120 l0 -5120 5120 0 5120 0 0 5120 0 5120 -5120 0 -5120 0 0
-5120z m5379 3250 c252 -19 575 -85 761 -155 303 -114 425 -174 655 -324 242
-157 471 -375 683 -648 93 -120 279 -436 284 -484 3 -21 -1 -24 -27 -22 -24 2
-26 1 -11 -5 17 -8 11 -15 -45 -53 l-64 -44 -349 -2 c-191 -2 -352 0 -358 3
-5 3 2 19 17 34 22 23 25 32 16 48 -6 11 -7 22 -3 26 3 4 -1 4 -10 1 -10 -4
-24 2 -37 16 -11 12 -24 19 -28 16 -3 -4 -1 -7 6 -7 7 0 10 -4 6 -9 -3 -5 3
-12 14 -16 10 -3 18 -12 17 -20 -3 -24 -16 -30 -16 -8 0 21 -22 37 -59 42 -5
0 -11 10 -14 21 -3 11 -1 18 4 14 5 -3 9 -1 9 5 0 5 6 11 13 14 6 2 -1 2 -16
0 -15 -3 -34 1 -42 7 -8 6 -18 9 -23 6 -5 -3 -18 7 -29 22 -34 47 -37 58 -5
22 33 -38 42 -35 16 5 -9 13 -14 30 -11 37 4 9 6 8 6 -3 1 -9 8 -22 17 -30 13
-11 14 -9 9 13 -4 15 -2 29 4 32 7 5 9 0 5 -11 -5 -14 -4 -15 4 -4 15 21 -13
77 -35 69 -4 -2 -8 5 -8 15 0 10 -7 22 -15 27 -12 8 -11 9 6 7 23 -3 54 -29
54 -45 0 -6 7 -12 15 -15 12 -5 40 -42 80 -106 6 -9 16 -20 23 -24 7 -5 9 -14
6 -20 -4 -7 -4 -9 1 -5 9 8 45 -54 45 -77 0 -8 4 -15 9 -15 11 0 -2 54 -17 73
-5 7 -41 55 -79 107 -39 52 -119 142 -177 198 -89 87 -109 102 -121 92 -13
-10 -15 -8 -16 11 0 18 -21 39 -87 87 -99 72 -255 159 -259 145 -2 -5 -17 -8
-33 -5 -16 2 -27 8 -24 13 3 5 1 9 -4 9 -6 0 -9 -58 -6 -147 2 -82 6 -614 9
-1183 4 -883 21 -2573 28 -2822 l2 -77 75 46 c224 139 446 367 595 610 30 50
44 64 69 68 17 4 177 5 356 3 l325 -3 88 -34 c49 -18 91 -40 94 -48 9 -23 -26
-96 -123 -259 -346 -581 -737 -950 -1286 -1214 -387 -185 -786 -274 -1233
-273 -233 1 -359 15 -595 69 -184 42 -559 173 -599 210 -17 15 -5 48 75 219
23 50 61 131 84 180 110 235 116 242 174 231 17 -4 37 -7 44 -8 6 -1 12 -5 12
-8 0 -4 22 -10 48 -14 27 -3 52 -10 56 -14 4 -4 11 -7 14 -8 4 0 20 -6 36 -13
16 -6 31 -9 34 -7 2 3 14 0 25 -5 11 -6 34 -13 51 -16 17 -2 45 -8 61 -13 57
-16 188 -27 425 -36 202 -7 206 -7 305 -28 87 -19 119 -17 251 15 182 43 450
146 488 188 11 12 13 25 7 46 -6 24 -12 29 -32 27 -13 -2 -20 0 -16 5 5 4 13
8 18 8 5 0 10 5 12 10 3 16 -126 23 -407 24 -144 0 -263 4 -268 9 -5 5 -8 117
-6 263 l3 254 -550 3 c-302 1 -563 -1 -580 -6 -25 -7 -34 -19 -55 -73 -13 -35
-27 -66 -30 -69 -6 -5 -31 -64 -62 -150 -12 -30 -25 -61 -31 -68 -6 -7 -29
-57 -52 -110 -23 -53 -86 -189 -139 -302 -110 -232 -109 -231 -164 -360 -22
-52 -84 -185 -137 -295 -85 -178 -98 -200 -118 -197 -12 2 -209 6 -437 9 -403
5 -416 5 -438 26 -12 11 -22 24 -22 29 0 14 92 196 423 838 290 561 350 681
380 745 32 70 107 221 694 1385 176 349 370 734 430 855 562 1125 729 1455
750 1483 l24 32 227 1 c125 0 218 4 207 8 -16 7 -13 9 19 13 24 3 43 -1 51 -9
8 -7 26 -12 42 -12 l28 1 -30 7 c-20 4 -30 12 -29 24 1 9 -8 19 -20 23 -11 3
-29 13 -39 22 -13 12 -20 13 -29 4 -9 -9 -7 -12 11 -12 12 0 20 -4 16 -10 -4
-6 -15 -5 -30 2 -13 6 -22 14 -20 18 3 5 -11 6 -31 5 -23 -2 -42 2 -51 11 -8
8 -25 12 -39 10 -15 -3 -27 1 -34 12 -5 9 -10 13 -10 7 0 -5 -4 -4 -8 2 -12
18 -82 28 -82 11 0 -9 -3 -10 -8 -2 -9 14 -82 23 -82 11 0 -5 -7 -4 -16 4 -13
10 -17 10 -25 -2 -6 -9 -11 -11 -16 -3 -13 18 -43 25 -43 9 0 -7 -5 -17 -12
-21 -7 -5 -8 -3 -3 6 6 9 0 11 -21 6 -18 -4 -40 0 -58 9 -32 17 -66 20 -66 5
0 -5 -7 -10 -15 -10 -9 0 -12 6 -9 15 4 8 9 13 13 11 3 -2 15 2 26 11 19 13
17 14 -20 11 -25 -2 -39 -8 -37 -15 1 -8 -8 -13 -20 -13 -15 0 -19 -3 -11 -8
8 -5 -1 -8 -22 -8 -19 0 -35 4 -35 8 0 4 -4 8 -10 8 -5 0 -7 -8 -4 -17 5 -15
4 -16 -5 -3 -9 12 -12 13 -20 1 -6 -10 -10 -10 -16 -1 -4 7 -18 9 -37 5 -21
-5 -28 -4 -24 4 4 6 0 11 -10 11 -24 0 -196 -41 -214 -51 -21 -12 -2 -11 40 2
19 5 55 14 80 18 25 5 53 12 63 16 9 4 17 3 17 -2 0 -9 -82 -36 -105 -35 -5 0
-13 -6 -18 -13 -4 -8 -15 -11 -24 -8 -11 4 -14 3 -9 -5 4 -7 1 -12 -8 -12 -8
0 -27 -6 -43 -14 -15 -8 -41 -19 -56 -25 -17 -7 -25 -16 -21 -23 5 -8 11 -6
20 6 9 13 17 15 29 8 14 -7 12 -11 -14 -22 -17 -7 -31 -17 -31 -22 0 -5 5 -6
12 -2 7 4 8 3 4 -4 -4 -7 -1 -12 6 -13 14 -1 -32 -22 -72 -33 -17 -5 -21 -4
-12 2 11 7 11 10 -2 15 -14 6 -20 -3 -17 -25 1 -11 -38 -20 -51 -12 -7 4 -10
4 -6 0 4 -5 -18 -21 -49 -38 -73 -39 -103 -50 -103 -38 0 6 8 10 18 10 9 1 28
7 42 15 l25 13 -28 7 c-21 6 -32 3 -43 -11 -9 -11 -13 -12 -9 -4 4 8 -3 4 -14
-10 -11 -14 -21 -19 -21 -12 0 23 -28 12 -32 -13 -5 -22 -2 -25 16 -19 14 4
11 -1 -9 -13 -44 -28 -63 -34 -71 -21 -5 7 -2 8 7 3 8 -4 4 2 -8 14 -27 26
-37 27 -24 2 6 -10 7 -21 3 -25 -3 -4 -1 -10 6 -15 8 -4 1 -13 -21 -25 -21
-11 -25 -12 -13 -2 17 14 17 15 -10 12 -23 -3 -29 -9 -28 -25 1 -24 -80 -88
-104 -83 -8 2 -20 -2 -28 -9 -8 -6 -17 -9 -21 -5 -4 3 2 13 13 22 18 14 18 15
-3 4 -25 -11 -29 -25 -13 -35 16 -10 12 -32 -6 -39 -14 -5 -15 -4 -4 8 10 13
9 19 -4 32 -10 9 -18 15 -19 13 -1 -2 -8 -14 -14 -26 -7 -13 -13 -25 -13 -28
0 -4 6 -3 13 1 6 4 1 -6 -13 -22 -14 -15 -17 -22 -7 -15 9 8 19 12 21 10 2 -2
-37 -42 -85 -88 -97 -91 -122 -104 -35 -17 50 49 58 66 34 66 -4 0 -7 -6 -6
-12 2 -8 -5 -12 -17 -10 -14 2 -16 0 -7 -6 9 -6 3 -17 -23 -40 -19 -18 -36
-38 -36 -45 -1 -6 -2 -17 -3 -23 -2 -15 -59 -74 -67 -69 -4 3 -13 -3 -20 -12
-10 -12 -10 -14 -1 -9 22 13 13 -4 -31 -62 -97 -127 -164 -235 -238 -387 -43
-88 -85 -184 -95 -213 -12 -39 -19 -50 -26 -40 -7 9 -8 8 -4 -6 4 -10 -5 -55
-18 -100 -79 -264 -99 -407 -100 -721 -1 -256 6 -338 45 -530 54 -266 122
-471 231 -697 l61 -126 -48 -83 c-47 -79 -49 -81 -58 -56 -5 15 -12 27 -17 27
-14 0 -5 29 14 43 17 12 17 14 3 20 -16 6 -26 -6 -102 -128 -19 -29 -48 -83
-175 -315 -34 -63 -68 -122 -75 -130 -6 -8 -15 -23 -18 -32 -15 -41 -44 -19
-99 75 -98 165 -119 207 -113 217 4 6 1 9 -6 8 -13 -3 -147 272 -209 429 -213
546 -283 1148 -204 1743 100 753 490 1486 1042 1958 499 427 1070 665 1707
712 151 11 169 11 314 0z m-134 -770 c3 -5 1 -10 -4 -10 -6 0 -11 5 -11 10 0
6 2 10 4 10 3 0 8 -4 11 -10z m-540 -71 c-8 -12 -35 -12 -35 0 0 11 22 20 33
14 4 -2 5 -9 2 -14z m315 11 c0 -5 -8 -10 -17 -10 -15 0 -16 2 -3 10 19 12 20
12 20 0z m-380 -80 c0 -5 -8 -10 -17 -10 -15 0 -16 2 -3 10 19 12 20 12 20 0z
m1890 -252 c0 -5 -9 -3 -20 4 -11 7 -20 16 -20 20 0 5 9 3 20 -4 11 -7 20 -16
20 -20z m75 -58 c3 -5 1 -10 -4 -10 -6 0 -11 5 -11 10 0 6 2 10 4 10 3 0 8 -4
11 -10z m-2650 -50 c-3 -5 -11 -10 -16 -10 -6 0 -7 5 -4 10 3 6 11 10 16 10 6
0 7 -4 4 -10z m2705 6 c0 -3 -4 -8 -10 -11 -5 -3 -10 -1 -10 4 0 6 5 11 10 11
6 0 10 -2 10 -4z m30 -51 c0 -5 -5 -3 -10 5 -5 8 -10 20 -10 25 0 6 5 3 10 -5
5 -8 10 -19 10 -25z m1 -88 c-10 -9 -11 -8 -5 6 3 10 9 15 12 12 3 -3 0 -11
-7 -18z"/>
<path d="M4920 7660 c-27 -6 -29 -8 -10 -8 14 -1 43 3 65 7 33 7 35 9 10 9
-16 -1 -46 -4 -65 -8z"/>
<path d="M5215 7640 c-3 -5 -1 -10 4 -10 6 0 11 5 11 10 0 6 -2 10 -4 10 -3 0
-8 -4 -11 -10z"/>
<path d="M4585 7580 c-13 -6 -15 -9 -5 -9 8 0 22 4 30 9 18 12 2 12 -25 0z"/>
<path d="M4513 7558 c-18 -6 -33 -15 -33 -19 0 -4 17 -1 38 8 60 24 57 31 -5
11z"/>
<path d="M4480 7500 c0 -32 15 -42 43 -29 33 15 25 32 -8 19 -16 -6 -25 -6
-25 0 0 6 7 10 15 10 8 0 15 4 15 9 0 6 -9 9 -20 8 -11 -1 -20 -8 -20 -17z"/>
<path d="M4430 7466 c0 -2 9 -6 20 -9 11 -3 18 -1 14 4 -5 9 -34 13 -34 5z"/>
<path d="M4536 7462 c-2 -4 -1 -14 4 -22 7 -11 9 -9 7 8 -1 24 -3 26 -11 14z"/>
<path d="M4260 7450 c-8 -5 -55 -33 -103 -61 -49 -28 -86 -53 -83 -56 2 -3 17
4 33 14 15 11 51 31 78 44 28 13 63 34 78 46 28 23 26 30 -3 13z"/>
<path d="M4277 7393 c-4 -3 -19 -6 -33 -7 -36 -1 -41 -20 -10 -34 21 -9 24 -9
19 3 -3 10 2 15 15 15 12 0 23 4 27 9 6 11 -9 23 -18 14z m-27 -17 c0 -3 -4
-8 -10 -11 -5 -3 -10 -1 -10 4 0 6 5 11 10 11 6 0 10 -2 10 -4z"/>
<path d="M4380 7382 c0 -7 -7 -9 -17 -5 -15 5 -16 3 -5 -8 9 -10 15 -10 24 -1
6 6 9 15 5 19 -4 3 -7 1 -7 -5z"/>
<path d="M4025 7310 c-3 -5 -2 -10 4 -10 5 0 13 5 16 10 3 6 2 10 -4 10 -5 0
-13 -4 -16 -10z"/>
<path d="M4187 7291 c-3 -12 -1 -21 3 -21 14 0 19 15 11 29 -6 9 -10 7 -14 -8z"/>
<path d="M3955 7259 c-59 -45 -67 -57 -12 -18 42 29 65 50 55 49 -2 0 -21 -14
-43 -31z"/>
<path d="M3799 7129 l-74 -71 78 68 c42 38 77 70 77 71 0 8 -12 -2 -81 -68z"/>
<path d="M3997 7154 c-15 -13 -24 -24 -20 -24 12 1 58 38 53 43 -3 3 -18 -6
-33 -19z"/>
<path d="M3890 7151 c0 -8 -6 -11 -16 -7 -14 6 -15 4 -4 -9 12 -15 14 -15 23
0 5 9 6 19 3 22 -3 4 -6 1 -6 -6z"/>
<path d="M3785 7050 c-3 -5 -2 -10 4 -10 5 0 13 5 16 10 3 6 2 10 -4 10 -5 0
-13 -4 -16 -10z"/>
<path d="M3640 6976 c-30 -33 -44 -52 -30 -41 44 35 108 106 94 104 -5 -1 -34
-29 -64 -63z"/>
<path d="M3750 7031 c0 -10 19 -25 25 -20 1 2 -3 10 -11 17 -8 7 -14 8 -14 3z"/>
<path d="M3800 6994 c0 -8 5 -12 10 -9 6 3 10 10 10 16 0 5 -4 9 -10 9 -5 0
-10 -7 -10 -16z"/>
<path d="M3469 6773 c-13 -16 -12 -17 4 -4 9 7 17 15 17 17 0 8 -8 3 -21 -13z"/>
<path d="M6830 6780 c0 -5 5 -10 10 -10 6 0 10 5 10 10 0 6 -4 10 -10 10 -5 0
-10 -4 -10 -10z"/>
<path d="M3321 6549 c-7 -12 -10 -23 -8 -26 3 -3 11 5 17 17 15 28 8 35 -9 9z"/>
<path d="M3430 6554 c0 -8 5 -12 10 -9 6 3 10 10 10 16 0 5 -4 9 -10 9 -5 0
-10 -7 -10 -16z"/>
<path d="M3386 6473 c-6 -14 -5 -15 5 -6 7 7 10 15 7 18 -3 3 -9 -2 -12 -12z"/>
<path d="M5396 6241 c-9 -10 -40 -72 -67 -137 -27 -66 -56 -133 -64 -151 -8
-17 -15 -35 -15 -41 0 -5 -6 -15 -14 -21 -8 -7 -17 -24 -21 -39 -3 -15 -24
-65 -46 -111 -22 -46 -41 -100 -42 -120 -2 -23 -7 -35 -16 -33 -8 2 -10 -4 -6
-18 3 -11 2 -20 -3 -20 -5 0 -9 -6 -9 -14 0 -24 -25 -76 -34 -70 -5 3 -8 -3
-7 -13 0 -10 0 -27 -1 -38 -1 -16 -3 -17 -10 -6 -6 10 -12 -3 -21 -42 -6 -31
-20 -67 -31 -81 -11 -14 -18 -26 -15 -26 3 0 0 -14 -6 -31 -8 -23 -13 -27 -19
-17 -7 10 -9 8 -10 -7 -4 -48 -19 -104 -29 -110 -4 -3 -6 5 -3 17 10 38 -4 16
-31 -51 -29 -73 -30 -75 -16 -66 13 8 13 -1 -1 -26 -5 -11 -15 -16 -21 -13 -6
4 -8 3 -5 -3 7 -12 -22 -93 -34 -93 -4 0 -7 -12 -7 -27 0 -16 -15 -62 -34
-103 -19 -41 -50 -113 -68 -160 -19 -47 -45 -95 -59 -107 l-24 -23 224 0 c123
0 289 -3 368 -6 99 -4 153 -1 173 7 28 11 28 13 28 95 0 49 4 84 10 84 6 0 10
31 10 73 0 54 -3 68 -11 57 -9 -12 -9 -11 -4 5 4 11 7 26 6 33 -1 6 -1 22 0
35 6 101 12 1427 7 1433 -3 2 -13 -4 -22 -15z m-514 -1213 c-8 -8 -9 -4 -5 13
4 13 8 18 11 10 2 -7 -1 -18 -6 -23z"/>
<path d="M3130 6141 c-12 -24 -13 -34 -1 -27 9 6 22 46 15 46 -2 0 -8 -9 -14
-19z"/>
<path d="M3105 6079 c-4 -6 -5 -12 -2 -15 2 -3 7 2 10 11 7 17 1 20 -8 4z"/>
<path d="M5066 5515 c-9 -26 -7 -32 5 -12 6 10 9 21 6 23 -2 3 -7 -2 -11 -11z"/>
<path d="M4746 4781 c-4 -7 -5 -15 -2 -18 9 -9 19 4 14 18 -4 11 -6 11 -12 0z"/>
<path d="M4730 4729 c0 -5 5 -7 10 -4 6 3 10 8 10 11 0 2 -4 4 -10 4 -5 0 -10
-5 -10 -11z"/>
<path d="M4706 4683 c-6 -14 -5 -15 5 -6 7 7 10 15 7 18 -3 3 -9 -2 -12 -12z"/>
<path d="M4676 4615 c-9 -26 -7 -32 5 -12 6 10 9 21 6 23 -2 3 -7 -2 -11 -11z"/>
<path d="M2381 4464 c0 -11 3 -14 6 -6 3 7 2 16 -1 19 -3 4 -6 -2 -5 -13z"/>
</g>
</svg>
